%TF.GenerationSoftware,KiCad,Pcbnew,(5.1.6)-1*%
%TF.CreationDate,2021-03-22T01:22:11+02:00*%
%TF.ProjectId,Yu_9V_charger,59755f39-565f-4636-9861-726765722e6b,rev?*%
%TF.SameCoordinates,Original*%
%TF.FileFunction,Paste,Top*%
%TF.FilePolarity,Positive*%
%FSLAX46Y46*%
G04 Gerber Fmt 4.6, Leading zero omitted, Abs format (unit mm)*
G04 Created by KiCad (PCBNEW (5.1.6)-1) date 2021-03-22 01:22:11*
%MOMM*%
%LPD*%
G01*
G04 APERTURE LIST*
%ADD10C,0.100000*%
%ADD11C,0.010000*%
%ADD12R,1.000000X0.800000*%
%ADD13R,0.700000X1.500000*%
G04 APERTURE END LIST*
D10*
%TO.C,U1*%
G36*
X140720000Y-72460000D02*
G01*
X139680000Y-72460000D01*
X139680000Y-71610000D01*
X140720000Y-71610000D01*
X140720000Y-72460000D01*
G37*
G36*
X140720000Y-71410000D02*
G01*
X139680000Y-71410000D01*
X139680000Y-70560000D01*
X140720000Y-70560000D01*
X140720000Y-71410000D01*
G37*
D11*
G36*
X141050000Y-72285000D02*
G01*
X141450000Y-72285000D01*
X141452620Y-72285069D01*
X141455230Y-72285274D01*
X141457820Y-72285616D01*
X141460400Y-72286093D01*
X141462940Y-72286704D01*
X141465450Y-72287447D01*
X141467920Y-72288321D01*
X141470340Y-72289323D01*
X141472700Y-72290450D01*
X141475000Y-72291699D01*
X141477230Y-72293066D01*
X141479390Y-72294549D01*
X141481470Y-72296143D01*
X141483460Y-72297843D01*
X141485360Y-72299645D01*
X141487160Y-72301543D01*
X141488860Y-72303534D01*
X141490450Y-72305611D01*
X141491930Y-72307768D01*
X141493300Y-72310000D01*
X141494550Y-72312300D01*
X141495680Y-72314663D01*
X141496680Y-72317082D01*
X141497550Y-72319549D01*
X141498300Y-72322059D01*
X141498910Y-72324604D01*
X141499380Y-72327178D01*
X141499730Y-72329774D01*
X141499930Y-72332383D01*
X141500000Y-72335000D01*
X141500000Y-72635000D01*
X141499930Y-72637620D01*
X141499730Y-72640230D01*
X141499380Y-72642820D01*
X141498910Y-72645400D01*
X141498300Y-72647940D01*
X141497550Y-72650450D01*
X141496680Y-72652920D01*
X141495680Y-72655340D01*
X141494550Y-72657700D01*
X141493300Y-72660000D01*
X141491930Y-72662230D01*
X141490450Y-72664390D01*
X141488860Y-72666470D01*
X141487160Y-72668460D01*
X141485360Y-72670360D01*
X141483460Y-72672160D01*
X141481470Y-72673860D01*
X141479390Y-72675450D01*
X141477230Y-72676930D01*
X141475000Y-72678300D01*
X141472700Y-72679550D01*
X141470340Y-72680680D01*
X141467920Y-72681680D01*
X141465450Y-72682550D01*
X141462940Y-72683300D01*
X141460400Y-72683910D01*
X141457820Y-72684380D01*
X141455230Y-72684730D01*
X141452620Y-72684930D01*
X141450000Y-72685000D01*
X141050000Y-72685000D01*
X141047383Y-72684930D01*
X141044774Y-72684730D01*
X141042178Y-72684380D01*
X141039604Y-72683910D01*
X141037059Y-72683300D01*
X141034549Y-72682550D01*
X141032082Y-72681680D01*
X141029663Y-72680680D01*
X141027300Y-72679550D01*
X141025000Y-72678300D01*
X141022768Y-72676930D01*
X141020611Y-72675450D01*
X141018534Y-72673860D01*
X141016543Y-72672160D01*
X141014645Y-72670360D01*
X141012843Y-72668460D01*
X141011143Y-72666470D01*
X141009549Y-72664390D01*
X141008066Y-72662230D01*
X141006699Y-72660000D01*
X141005450Y-72657700D01*
X141004323Y-72655340D01*
X141003321Y-72652920D01*
X141002447Y-72650450D01*
X141001704Y-72647940D01*
X141001093Y-72645400D01*
X141000616Y-72642820D01*
X141000274Y-72640230D01*
X141000069Y-72637620D01*
X141000000Y-72635000D01*
X141000000Y-72335000D01*
X141000069Y-72332383D01*
X141000274Y-72329774D01*
X141000616Y-72327178D01*
X141001093Y-72324604D01*
X141001704Y-72322059D01*
X141002447Y-72319549D01*
X141003321Y-72317082D01*
X141004323Y-72314663D01*
X141005450Y-72312300D01*
X141006699Y-72310000D01*
X141008066Y-72307768D01*
X141009549Y-72305611D01*
X141011143Y-72303534D01*
X141012843Y-72301543D01*
X141014645Y-72299645D01*
X141016543Y-72297843D01*
X141018534Y-72296143D01*
X141020611Y-72294549D01*
X141022768Y-72293066D01*
X141025000Y-72291699D01*
X141027300Y-72290450D01*
X141029663Y-72289323D01*
X141032082Y-72288321D01*
X141034549Y-72287447D01*
X141037059Y-72286704D01*
X141039604Y-72286093D01*
X141042178Y-72285616D01*
X141044774Y-72285274D01*
X141047383Y-72285069D01*
X141050000Y-72285000D01*
G37*
X141050000Y-72285000D02*
X141450000Y-72285000D01*
X141452620Y-72285069D01*
X141455230Y-72285274D01*
X141457820Y-72285616D01*
X141460400Y-72286093D01*
X141462940Y-72286704D01*
X141465450Y-72287447D01*
X141467920Y-72288321D01*
X141470340Y-72289323D01*
X141472700Y-72290450D01*
X141475000Y-72291699D01*
X141477230Y-72293066D01*
X141479390Y-72294549D01*
X141481470Y-72296143D01*
X141483460Y-72297843D01*
X141485360Y-72299645D01*
X141487160Y-72301543D01*
X141488860Y-72303534D01*
X141490450Y-72305611D01*
X141491930Y-72307768D01*
X141493300Y-72310000D01*
X141494550Y-72312300D01*
X141495680Y-72314663D01*
X141496680Y-72317082D01*
X141497550Y-72319549D01*
X141498300Y-72322059D01*
X141498910Y-72324604D01*
X141499380Y-72327178D01*
X141499730Y-72329774D01*
X141499930Y-72332383D01*
X141500000Y-72335000D01*
X141500000Y-72635000D01*
X141499930Y-72637620D01*
X141499730Y-72640230D01*
X141499380Y-72642820D01*
X141498910Y-72645400D01*
X141498300Y-72647940D01*
X141497550Y-72650450D01*
X141496680Y-72652920D01*
X141495680Y-72655340D01*
X141494550Y-72657700D01*
X141493300Y-72660000D01*
X141491930Y-72662230D01*
X141490450Y-72664390D01*
X141488860Y-72666470D01*
X141487160Y-72668460D01*
X141485360Y-72670360D01*
X141483460Y-72672160D01*
X141481470Y-72673860D01*
X141479390Y-72675450D01*
X141477230Y-72676930D01*
X141475000Y-72678300D01*
X141472700Y-72679550D01*
X141470340Y-72680680D01*
X141467920Y-72681680D01*
X141465450Y-72682550D01*
X141462940Y-72683300D01*
X141460400Y-72683910D01*
X141457820Y-72684380D01*
X141455230Y-72684730D01*
X141452620Y-72684930D01*
X141450000Y-72685000D01*
X141050000Y-72685000D01*
X141047383Y-72684930D01*
X141044774Y-72684730D01*
X141042178Y-72684380D01*
X141039604Y-72683910D01*
X141037059Y-72683300D01*
X141034549Y-72682550D01*
X141032082Y-72681680D01*
X141029663Y-72680680D01*
X141027300Y-72679550D01*
X141025000Y-72678300D01*
X141022768Y-72676930D01*
X141020611Y-72675450D01*
X141018534Y-72673860D01*
X141016543Y-72672160D01*
X141014645Y-72670360D01*
X141012843Y-72668460D01*
X141011143Y-72666470D01*
X141009549Y-72664390D01*
X141008066Y-72662230D01*
X141006699Y-72660000D01*
X141005450Y-72657700D01*
X141004323Y-72655340D01*
X141003321Y-72652920D01*
X141002447Y-72650450D01*
X141001704Y-72647940D01*
X141001093Y-72645400D01*
X141000616Y-72642820D01*
X141000274Y-72640230D01*
X141000069Y-72637620D01*
X141000000Y-72635000D01*
X141000000Y-72335000D01*
X141000069Y-72332383D01*
X141000274Y-72329774D01*
X141000616Y-72327178D01*
X141001093Y-72324604D01*
X141001704Y-72322059D01*
X141002447Y-72319549D01*
X141003321Y-72317082D01*
X141004323Y-72314663D01*
X141005450Y-72312300D01*
X141006699Y-72310000D01*
X141008066Y-72307768D01*
X141009549Y-72305611D01*
X141011143Y-72303534D01*
X141012843Y-72301543D01*
X141014645Y-72299645D01*
X141016543Y-72297843D01*
X141018534Y-72296143D01*
X141020611Y-72294549D01*
X141022768Y-72293066D01*
X141025000Y-72291699D01*
X141027300Y-72290450D01*
X141029663Y-72289323D01*
X141032082Y-72288321D01*
X141034549Y-72287447D01*
X141037059Y-72286704D01*
X141039604Y-72286093D01*
X141042178Y-72285616D01*
X141044774Y-72285274D01*
X141047383Y-72285069D01*
X141050000Y-72285000D01*
G36*
X141050000Y-71635000D02*
G01*
X141450000Y-71635000D01*
X141452620Y-71635069D01*
X141455230Y-71635274D01*
X141457820Y-71635616D01*
X141460400Y-71636093D01*
X141462940Y-71636704D01*
X141465450Y-71637447D01*
X141467920Y-71638321D01*
X141470340Y-71639323D01*
X141472700Y-71640450D01*
X141475000Y-71641699D01*
X141477230Y-71643066D01*
X141479390Y-71644549D01*
X141481470Y-71646143D01*
X141483460Y-71647843D01*
X141485360Y-71649645D01*
X141487160Y-71651543D01*
X141488860Y-71653534D01*
X141490450Y-71655611D01*
X141491930Y-71657768D01*
X141493300Y-71660000D01*
X141494550Y-71662300D01*
X141495680Y-71664663D01*
X141496680Y-71667082D01*
X141497550Y-71669549D01*
X141498300Y-71672059D01*
X141498910Y-71674604D01*
X141499380Y-71677178D01*
X141499730Y-71679774D01*
X141499930Y-71682383D01*
X141500000Y-71685000D01*
X141500000Y-71985000D01*
X141499930Y-71987617D01*
X141499730Y-71990226D01*
X141499380Y-71992822D01*
X141498910Y-71995396D01*
X141498300Y-71997941D01*
X141497550Y-72000451D01*
X141496680Y-72002918D01*
X141495680Y-72005337D01*
X141494550Y-72007700D01*
X141493300Y-72010000D01*
X141491930Y-72012232D01*
X141490450Y-72014389D01*
X141488860Y-72016466D01*
X141487160Y-72018457D01*
X141485360Y-72020355D01*
X141483460Y-72022157D01*
X141481470Y-72023857D01*
X141479390Y-72025451D01*
X141477230Y-72026934D01*
X141475000Y-72028301D01*
X141472700Y-72029550D01*
X141470340Y-72030677D01*
X141467920Y-72031679D01*
X141465450Y-72032553D01*
X141462940Y-72033296D01*
X141460400Y-72033907D01*
X141457820Y-72034384D01*
X141455230Y-72034726D01*
X141452620Y-72034931D01*
X141450000Y-72035000D01*
X141050000Y-72035000D01*
X141047383Y-72034931D01*
X141044774Y-72034726D01*
X141042178Y-72034384D01*
X141039604Y-72033907D01*
X141037059Y-72033296D01*
X141034549Y-72032553D01*
X141032082Y-72031679D01*
X141029663Y-72030677D01*
X141027300Y-72029550D01*
X141025000Y-72028301D01*
X141022768Y-72026934D01*
X141020611Y-72025451D01*
X141018534Y-72023857D01*
X141016543Y-72022157D01*
X141014645Y-72020355D01*
X141012843Y-72018457D01*
X141011143Y-72016466D01*
X141009549Y-72014389D01*
X141008066Y-72012232D01*
X141006699Y-72010000D01*
X141005450Y-72007700D01*
X141004323Y-72005337D01*
X141003321Y-72002918D01*
X141002447Y-72000451D01*
X141001704Y-71997941D01*
X141001093Y-71995396D01*
X141000616Y-71992822D01*
X141000274Y-71990226D01*
X141000069Y-71987617D01*
X141000000Y-71985000D01*
X141000000Y-71685000D01*
X141000069Y-71682383D01*
X141000274Y-71679774D01*
X141000616Y-71677178D01*
X141001093Y-71674604D01*
X141001704Y-71672059D01*
X141002447Y-71669549D01*
X141003321Y-71667082D01*
X141004323Y-71664663D01*
X141005450Y-71662300D01*
X141006699Y-71660000D01*
X141008066Y-71657768D01*
X141009549Y-71655611D01*
X141011143Y-71653534D01*
X141012843Y-71651543D01*
X141014645Y-71649645D01*
X141016543Y-71647843D01*
X141018534Y-71646143D01*
X141020611Y-71644549D01*
X141022768Y-71643066D01*
X141025000Y-71641699D01*
X141027300Y-71640450D01*
X141029663Y-71639323D01*
X141032082Y-71638321D01*
X141034549Y-71637447D01*
X141037059Y-71636704D01*
X141039604Y-71636093D01*
X141042178Y-71635616D01*
X141044774Y-71635274D01*
X141047383Y-71635069D01*
X141050000Y-71635000D01*
G37*
X141050000Y-71635000D02*
X141450000Y-71635000D01*
X141452620Y-71635069D01*
X141455230Y-71635274D01*
X141457820Y-71635616D01*
X141460400Y-71636093D01*
X141462940Y-71636704D01*
X141465450Y-71637447D01*
X141467920Y-71638321D01*
X141470340Y-71639323D01*
X141472700Y-71640450D01*
X141475000Y-71641699D01*
X141477230Y-71643066D01*
X141479390Y-71644549D01*
X141481470Y-71646143D01*
X141483460Y-71647843D01*
X141485360Y-71649645D01*
X141487160Y-71651543D01*
X141488860Y-71653534D01*
X141490450Y-71655611D01*
X141491930Y-71657768D01*
X141493300Y-71660000D01*
X141494550Y-71662300D01*
X141495680Y-71664663D01*
X141496680Y-71667082D01*
X141497550Y-71669549D01*
X141498300Y-71672059D01*
X141498910Y-71674604D01*
X141499380Y-71677178D01*
X141499730Y-71679774D01*
X141499930Y-71682383D01*
X141500000Y-71685000D01*
X141500000Y-71985000D01*
X141499930Y-71987617D01*
X141499730Y-71990226D01*
X141499380Y-71992822D01*
X141498910Y-71995396D01*
X141498300Y-71997941D01*
X141497550Y-72000451D01*
X141496680Y-72002918D01*
X141495680Y-72005337D01*
X141494550Y-72007700D01*
X141493300Y-72010000D01*
X141491930Y-72012232D01*
X141490450Y-72014389D01*
X141488860Y-72016466D01*
X141487160Y-72018457D01*
X141485360Y-72020355D01*
X141483460Y-72022157D01*
X141481470Y-72023857D01*
X141479390Y-72025451D01*
X141477230Y-72026934D01*
X141475000Y-72028301D01*
X141472700Y-72029550D01*
X141470340Y-72030677D01*
X141467920Y-72031679D01*
X141465450Y-72032553D01*
X141462940Y-72033296D01*
X141460400Y-72033907D01*
X141457820Y-72034384D01*
X141455230Y-72034726D01*
X141452620Y-72034931D01*
X141450000Y-72035000D01*
X141050000Y-72035000D01*
X141047383Y-72034931D01*
X141044774Y-72034726D01*
X141042178Y-72034384D01*
X141039604Y-72033907D01*
X141037059Y-72033296D01*
X141034549Y-72032553D01*
X141032082Y-72031679D01*
X141029663Y-72030677D01*
X141027300Y-72029550D01*
X141025000Y-72028301D01*
X141022768Y-72026934D01*
X141020611Y-72025451D01*
X141018534Y-72023857D01*
X141016543Y-72022157D01*
X141014645Y-72020355D01*
X141012843Y-72018457D01*
X141011143Y-72016466D01*
X141009549Y-72014389D01*
X141008066Y-72012232D01*
X141006699Y-72010000D01*
X141005450Y-72007700D01*
X141004323Y-72005337D01*
X141003321Y-72002918D01*
X141002447Y-72000451D01*
X141001704Y-71997941D01*
X141001093Y-71995396D01*
X141000616Y-71992822D01*
X141000274Y-71990226D01*
X141000069Y-71987617D01*
X141000000Y-71985000D01*
X141000000Y-71685000D01*
X141000069Y-71682383D01*
X141000274Y-71679774D01*
X141000616Y-71677178D01*
X141001093Y-71674604D01*
X141001704Y-71672059D01*
X141002447Y-71669549D01*
X141003321Y-71667082D01*
X141004323Y-71664663D01*
X141005450Y-71662300D01*
X141006699Y-71660000D01*
X141008066Y-71657768D01*
X141009549Y-71655611D01*
X141011143Y-71653534D01*
X141012843Y-71651543D01*
X141014645Y-71649645D01*
X141016543Y-71647843D01*
X141018534Y-71646143D01*
X141020611Y-71644549D01*
X141022768Y-71643066D01*
X141025000Y-71641699D01*
X141027300Y-71640450D01*
X141029663Y-71639323D01*
X141032082Y-71638321D01*
X141034549Y-71637447D01*
X141037059Y-71636704D01*
X141039604Y-71636093D01*
X141042178Y-71635616D01*
X141044774Y-71635274D01*
X141047383Y-71635069D01*
X141050000Y-71635000D01*
G36*
X141050000Y-70985000D02*
G01*
X141450000Y-70985000D01*
X141452620Y-70985069D01*
X141455230Y-70985274D01*
X141457820Y-70985616D01*
X141460400Y-70986093D01*
X141462940Y-70986704D01*
X141465450Y-70987447D01*
X141467920Y-70988321D01*
X141470340Y-70989323D01*
X141472700Y-70990450D01*
X141475000Y-70991699D01*
X141477230Y-70993066D01*
X141479390Y-70994549D01*
X141481470Y-70996143D01*
X141483460Y-70997843D01*
X141485360Y-70999645D01*
X141487160Y-71001543D01*
X141488860Y-71003534D01*
X141490450Y-71005611D01*
X141491930Y-71007768D01*
X141493300Y-71010000D01*
X141494550Y-71012300D01*
X141495680Y-71014663D01*
X141496680Y-71017082D01*
X141497550Y-71019549D01*
X141498300Y-71022059D01*
X141498910Y-71024604D01*
X141499380Y-71027178D01*
X141499730Y-71029774D01*
X141499930Y-71032383D01*
X141500000Y-71035000D01*
X141500000Y-71335000D01*
X141499930Y-71337617D01*
X141499730Y-71340226D01*
X141499380Y-71342822D01*
X141498910Y-71345396D01*
X141498300Y-71347941D01*
X141497550Y-71350451D01*
X141496680Y-71352918D01*
X141495680Y-71355337D01*
X141494550Y-71357700D01*
X141493300Y-71360000D01*
X141491930Y-71362232D01*
X141490450Y-71364389D01*
X141488860Y-71366466D01*
X141487160Y-71368457D01*
X141485360Y-71370355D01*
X141483460Y-71372157D01*
X141481470Y-71373857D01*
X141479390Y-71375451D01*
X141477230Y-71376934D01*
X141475000Y-71378301D01*
X141472700Y-71379550D01*
X141470340Y-71380677D01*
X141467920Y-71381679D01*
X141465450Y-71382553D01*
X141462940Y-71383296D01*
X141460400Y-71383907D01*
X141457820Y-71384384D01*
X141455230Y-71384726D01*
X141452620Y-71384931D01*
X141450000Y-71385000D01*
X141050000Y-71385000D01*
X141047383Y-71384931D01*
X141044774Y-71384726D01*
X141042178Y-71384384D01*
X141039604Y-71383907D01*
X141037059Y-71383296D01*
X141034549Y-71382553D01*
X141032082Y-71381679D01*
X141029663Y-71380677D01*
X141027300Y-71379550D01*
X141025000Y-71378301D01*
X141022768Y-71376934D01*
X141020611Y-71375451D01*
X141018534Y-71373857D01*
X141016543Y-71372157D01*
X141014645Y-71370355D01*
X141012843Y-71368457D01*
X141011143Y-71366466D01*
X141009549Y-71364389D01*
X141008066Y-71362232D01*
X141006699Y-71360000D01*
X141005450Y-71357700D01*
X141004323Y-71355337D01*
X141003321Y-71352918D01*
X141002447Y-71350451D01*
X141001704Y-71347941D01*
X141001093Y-71345396D01*
X141000616Y-71342822D01*
X141000274Y-71340226D01*
X141000069Y-71337617D01*
X141000000Y-71335000D01*
X141000000Y-71035000D01*
X141000069Y-71032383D01*
X141000274Y-71029774D01*
X141000616Y-71027178D01*
X141001093Y-71024604D01*
X141001704Y-71022059D01*
X141002447Y-71019549D01*
X141003321Y-71017082D01*
X141004323Y-71014663D01*
X141005450Y-71012300D01*
X141006699Y-71010000D01*
X141008066Y-71007768D01*
X141009549Y-71005611D01*
X141011143Y-71003534D01*
X141012843Y-71001543D01*
X141014645Y-70999645D01*
X141016543Y-70997843D01*
X141018534Y-70996143D01*
X141020611Y-70994549D01*
X141022768Y-70993066D01*
X141025000Y-70991699D01*
X141027300Y-70990450D01*
X141029663Y-70989323D01*
X141032082Y-70988321D01*
X141034549Y-70987447D01*
X141037059Y-70986704D01*
X141039604Y-70986093D01*
X141042178Y-70985616D01*
X141044774Y-70985274D01*
X141047383Y-70985069D01*
X141050000Y-70985000D01*
G37*
X141050000Y-70985000D02*
X141450000Y-70985000D01*
X141452620Y-70985069D01*
X141455230Y-70985274D01*
X141457820Y-70985616D01*
X141460400Y-70986093D01*
X141462940Y-70986704D01*
X141465450Y-70987447D01*
X141467920Y-70988321D01*
X141470340Y-70989323D01*
X141472700Y-70990450D01*
X141475000Y-70991699D01*
X141477230Y-70993066D01*
X141479390Y-70994549D01*
X141481470Y-70996143D01*
X141483460Y-70997843D01*
X141485360Y-70999645D01*
X141487160Y-71001543D01*
X141488860Y-71003534D01*
X141490450Y-71005611D01*
X141491930Y-71007768D01*
X141493300Y-71010000D01*
X141494550Y-71012300D01*
X141495680Y-71014663D01*
X141496680Y-71017082D01*
X141497550Y-71019549D01*
X141498300Y-71022059D01*
X141498910Y-71024604D01*
X141499380Y-71027178D01*
X141499730Y-71029774D01*
X141499930Y-71032383D01*
X141500000Y-71035000D01*
X141500000Y-71335000D01*
X141499930Y-71337617D01*
X141499730Y-71340226D01*
X141499380Y-71342822D01*
X141498910Y-71345396D01*
X141498300Y-71347941D01*
X141497550Y-71350451D01*
X141496680Y-71352918D01*
X141495680Y-71355337D01*
X141494550Y-71357700D01*
X141493300Y-71360000D01*
X141491930Y-71362232D01*
X141490450Y-71364389D01*
X141488860Y-71366466D01*
X141487160Y-71368457D01*
X141485360Y-71370355D01*
X141483460Y-71372157D01*
X141481470Y-71373857D01*
X141479390Y-71375451D01*
X141477230Y-71376934D01*
X141475000Y-71378301D01*
X141472700Y-71379550D01*
X141470340Y-71380677D01*
X141467920Y-71381679D01*
X141465450Y-71382553D01*
X141462940Y-71383296D01*
X141460400Y-71383907D01*
X141457820Y-71384384D01*
X141455230Y-71384726D01*
X141452620Y-71384931D01*
X141450000Y-71385000D01*
X141050000Y-71385000D01*
X141047383Y-71384931D01*
X141044774Y-71384726D01*
X141042178Y-71384384D01*
X141039604Y-71383907D01*
X141037059Y-71383296D01*
X141034549Y-71382553D01*
X141032082Y-71381679D01*
X141029663Y-71380677D01*
X141027300Y-71379550D01*
X141025000Y-71378301D01*
X141022768Y-71376934D01*
X141020611Y-71375451D01*
X141018534Y-71373857D01*
X141016543Y-71372157D01*
X141014645Y-71370355D01*
X141012843Y-71368457D01*
X141011143Y-71366466D01*
X141009549Y-71364389D01*
X141008066Y-71362232D01*
X141006699Y-71360000D01*
X141005450Y-71357700D01*
X141004323Y-71355337D01*
X141003321Y-71352918D01*
X141002447Y-71350451D01*
X141001704Y-71347941D01*
X141001093Y-71345396D01*
X141000616Y-71342822D01*
X141000274Y-71340226D01*
X141000069Y-71337617D01*
X141000000Y-71335000D01*
X141000000Y-71035000D01*
X141000069Y-71032383D01*
X141000274Y-71029774D01*
X141000616Y-71027178D01*
X141001093Y-71024604D01*
X141001704Y-71022059D01*
X141002447Y-71019549D01*
X141003321Y-71017082D01*
X141004323Y-71014663D01*
X141005450Y-71012300D01*
X141006699Y-71010000D01*
X141008066Y-71007768D01*
X141009549Y-71005611D01*
X141011143Y-71003534D01*
X141012843Y-71001543D01*
X141014645Y-70999645D01*
X141016543Y-70997843D01*
X141018534Y-70996143D01*
X141020611Y-70994549D01*
X141022768Y-70993066D01*
X141025000Y-70991699D01*
X141027300Y-70990450D01*
X141029663Y-70989323D01*
X141032082Y-70988321D01*
X141034549Y-70987447D01*
X141037059Y-70986704D01*
X141039604Y-70986093D01*
X141042178Y-70985616D01*
X141044774Y-70985274D01*
X141047383Y-70985069D01*
X141050000Y-70985000D01*
G36*
X141050000Y-70335000D02*
G01*
X141450000Y-70335000D01*
X141452620Y-70335070D01*
X141455230Y-70335270D01*
X141457820Y-70335620D01*
X141460400Y-70336090D01*
X141462940Y-70336700D01*
X141465450Y-70337450D01*
X141467920Y-70338320D01*
X141470340Y-70339320D01*
X141472700Y-70340450D01*
X141475000Y-70341700D01*
X141477230Y-70343070D01*
X141479390Y-70344550D01*
X141481470Y-70346140D01*
X141483460Y-70347840D01*
X141485360Y-70349640D01*
X141487160Y-70351540D01*
X141488860Y-70353530D01*
X141490450Y-70355610D01*
X141491930Y-70357770D01*
X141493300Y-70360000D01*
X141494550Y-70362300D01*
X141495680Y-70364660D01*
X141496680Y-70367080D01*
X141497550Y-70369550D01*
X141498300Y-70372060D01*
X141498910Y-70374600D01*
X141499380Y-70377180D01*
X141499730Y-70379770D01*
X141499930Y-70382380D01*
X141500000Y-70385000D01*
X141500000Y-70685000D01*
X141499930Y-70687617D01*
X141499730Y-70690226D01*
X141499380Y-70692822D01*
X141498910Y-70695396D01*
X141498300Y-70697941D01*
X141497550Y-70700451D01*
X141496680Y-70702918D01*
X141495680Y-70705337D01*
X141494550Y-70707700D01*
X141493300Y-70710000D01*
X141491930Y-70712232D01*
X141490450Y-70714389D01*
X141488860Y-70716466D01*
X141487160Y-70718457D01*
X141485360Y-70720355D01*
X141483460Y-70722157D01*
X141481470Y-70723857D01*
X141479390Y-70725451D01*
X141477230Y-70726934D01*
X141475000Y-70728301D01*
X141472700Y-70729550D01*
X141470340Y-70730677D01*
X141467920Y-70731679D01*
X141465450Y-70732553D01*
X141462940Y-70733296D01*
X141460400Y-70733907D01*
X141457820Y-70734384D01*
X141455230Y-70734726D01*
X141452620Y-70734931D01*
X141450000Y-70735000D01*
X141050000Y-70735000D01*
X141047383Y-70734931D01*
X141044774Y-70734726D01*
X141042178Y-70734384D01*
X141039604Y-70733907D01*
X141037059Y-70733296D01*
X141034549Y-70732553D01*
X141032082Y-70731679D01*
X141029663Y-70730677D01*
X141027300Y-70729550D01*
X141025000Y-70728301D01*
X141022768Y-70726934D01*
X141020611Y-70725451D01*
X141018534Y-70723857D01*
X141016543Y-70722157D01*
X141014645Y-70720355D01*
X141012843Y-70718457D01*
X141011143Y-70716466D01*
X141009549Y-70714389D01*
X141008066Y-70712232D01*
X141006699Y-70710000D01*
X141005450Y-70707700D01*
X141004323Y-70705337D01*
X141003321Y-70702918D01*
X141002447Y-70700451D01*
X141001704Y-70697941D01*
X141001093Y-70695396D01*
X141000616Y-70692822D01*
X141000274Y-70690226D01*
X141000069Y-70687617D01*
X141000000Y-70685000D01*
X141000000Y-70385000D01*
X141000069Y-70382380D01*
X141000274Y-70379770D01*
X141000616Y-70377180D01*
X141001093Y-70374600D01*
X141001704Y-70372060D01*
X141002447Y-70369550D01*
X141003321Y-70367080D01*
X141004323Y-70364660D01*
X141005450Y-70362300D01*
X141006699Y-70360000D01*
X141008066Y-70357770D01*
X141009549Y-70355610D01*
X141011143Y-70353530D01*
X141012843Y-70351540D01*
X141014645Y-70349640D01*
X141016543Y-70347840D01*
X141018534Y-70346140D01*
X141020611Y-70344550D01*
X141022768Y-70343070D01*
X141025000Y-70341700D01*
X141027300Y-70340450D01*
X141029663Y-70339320D01*
X141032082Y-70338320D01*
X141034549Y-70337450D01*
X141037059Y-70336700D01*
X141039604Y-70336090D01*
X141042178Y-70335620D01*
X141044774Y-70335270D01*
X141047383Y-70335070D01*
X141050000Y-70335000D01*
G37*
X141050000Y-70335000D02*
X141450000Y-70335000D01*
X141452620Y-70335070D01*
X141455230Y-70335270D01*
X141457820Y-70335620D01*
X141460400Y-70336090D01*
X141462940Y-70336700D01*
X141465450Y-70337450D01*
X141467920Y-70338320D01*
X141470340Y-70339320D01*
X141472700Y-70340450D01*
X141475000Y-70341700D01*
X141477230Y-70343070D01*
X141479390Y-70344550D01*
X141481470Y-70346140D01*
X141483460Y-70347840D01*
X141485360Y-70349640D01*
X141487160Y-70351540D01*
X141488860Y-70353530D01*
X141490450Y-70355610D01*
X141491930Y-70357770D01*
X141493300Y-70360000D01*
X141494550Y-70362300D01*
X141495680Y-70364660D01*
X141496680Y-70367080D01*
X141497550Y-70369550D01*
X141498300Y-70372060D01*
X141498910Y-70374600D01*
X141499380Y-70377180D01*
X141499730Y-70379770D01*
X141499930Y-70382380D01*
X141500000Y-70385000D01*
X141500000Y-70685000D01*
X141499930Y-70687617D01*
X141499730Y-70690226D01*
X141499380Y-70692822D01*
X141498910Y-70695396D01*
X141498300Y-70697941D01*
X141497550Y-70700451D01*
X141496680Y-70702918D01*
X141495680Y-70705337D01*
X141494550Y-70707700D01*
X141493300Y-70710000D01*
X141491930Y-70712232D01*
X141490450Y-70714389D01*
X141488860Y-70716466D01*
X141487160Y-70718457D01*
X141485360Y-70720355D01*
X141483460Y-70722157D01*
X141481470Y-70723857D01*
X141479390Y-70725451D01*
X141477230Y-70726934D01*
X141475000Y-70728301D01*
X141472700Y-70729550D01*
X141470340Y-70730677D01*
X141467920Y-70731679D01*
X141465450Y-70732553D01*
X141462940Y-70733296D01*
X141460400Y-70733907D01*
X141457820Y-70734384D01*
X141455230Y-70734726D01*
X141452620Y-70734931D01*
X141450000Y-70735000D01*
X141050000Y-70735000D01*
X141047383Y-70734931D01*
X141044774Y-70734726D01*
X141042178Y-70734384D01*
X141039604Y-70733907D01*
X141037059Y-70733296D01*
X141034549Y-70732553D01*
X141032082Y-70731679D01*
X141029663Y-70730677D01*
X141027300Y-70729550D01*
X141025000Y-70728301D01*
X141022768Y-70726934D01*
X141020611Y-70725451D01*
X141018534Y-70723857D01*
X141016543Y-70722157D01*
X141014645Y-70720355D01*
X141012843Y-70718457D01*
X141011143Y-70716466D01*
X141009549Y-70714389D01*
X141008066Y-70712232D01*
X141006699Y-70710000D01*
X141005450Y-70707700D01*
X141004323Y-70705337D01*
X141003321Y-70702918D01*
X141002447Y-70700451D01*
X141001704Y-70697941D01*
X141001093Y-70695396D01*
X141000616Y-70692822D01*
X141000274Y-70690226D01*
X141000069Y-70687617D01*
X141000000Y-70685000D01*
X141000000Y-70385000D01*
X141000069Y-70382380D01*
X141000274Y-70379770D01*
X141000616Y-70377180D01*
X141001093Y-70374600D01*
X141001704Y-70372060D01*
X141002447Y-70369550D01*
X141003321Y-70367080D01*
X141004323Y-70364660D01*
X141005450Y-70362300D01*
X141006699Y-70360000D01*
X141008066Y-70357770D01*
X141009549Y-70355610D01*
X141011143Y-70353530D01*
X141012843Y-70351540D01*
X141014645Y-70349640D01*
X141016543Y-70347840D01*
X141018534Y-70346140D01*
X141020611Y-70344550D01*
X141022768Y-70343070D01*
X141025000Y-70341700D01*
X141027300Y-70340450D01*
X141029663Y-70339320D01*
X141032082Y-70338320D01*
X141034549Y-70337450D01*
X141037059Y-70336700D01*
X141039604Y-70336090D01*
X141042178Y-70335620D01*
X141044774Y-70335270D01*
X141047383Y-70335070D01*
X141050000Y-70335000D01*
G36*
X138950000Y-72285000D02*
G01*
X139350000Y-72285000D01*
X139352617Y-72285069D01*
X139355226Y-72285274D01*
X139357822Y-72285616D01*
X139360396Y-72286093D01*
X139362941Y-72286704D01*
X139365451Y-72287447D01*
X139367918Y-72288321D01*
X139370337Y-72289323D01*
X139372700Y-72290450D01*
X139375000Y-72291699D01*
X139377232Y-72293066D01*
X139379389Y-72294549D01*
X139381466Y-72296143D01*
X139383457Y-72297843D01*
X139385355Y-72299645D01*
X139387157Y-72301543D01*
X139388857Y-72303534D01*
X139390451Y-72305611D01*
X139391934Y-72307768D01*
X139393301Y-72310000D01*
X139394550Y-72312300D01*
X139395677Y-72314663D01*
X139396679Y-72317082D01*
X139397553Y-72319549D01*
X139398296Y-72322059D01*
X139398907Y-72324604D01*
X139399384Y-72327178D01*
X139399726Y-72329774D01*
X139399931Y-72332383D01*
X139400000Y-72335000D01*
X139400000Y-72635000D01*
X139399931Y-72637620D01*
X139399726Y-72640230D01*
X139399384Y-72642820D01*
X139398907Y-72645400D01*
X139398296Y-72647940D01*
X139397553Y-72650450D01*
X139396679Y-72652920D01*
X139395677Y-72655340D01*
X139394550Y-72657700D01*
X139393301Y-72660000D01*
X139391934Y-72662230D01*
X139390451Y-72664390D01*
X139388857Y-72666470D01*
X139387157Y-72668460D01*
X139385355Y-72670360D01*
X139383457Y-72672160D01*
X139381466Y-72673860D01*
X139379389Y-72675450D01*
X139377232Y-72676930D01*
X139375000Y-72678300D01*
X139372700Y-72679550D01*
X139370337Y-72680680D01*
X139367918Y-72681680D01*
X139365451Y-72682550D01*
X139362941Y-72683300D01*
X139360396Y-72683910D01*
X139357822Y-72684380D01*
X139355226Y-72684730D01*
X139352617Y-72684930D01*
X139350000Y-72685000D01*
X138950000Y-72685000D01*
X138947380Y-72684930D01*
X138944770Y-72684730D01*
X138942180Y-72684380D01*
X138939600Y-72683910D01*
X138937060Y-72683300D01*
X138934550Y-72682550D01*
X138932080Y-72681680D01*
X138929660Y-72680680D01*
X138927300Y-72679550D01*
X138925000Y-72678300D01*
X138922770Y-72676930D01*
X138920610Y-72675450D01*
X138918530Y-72673860D01*
X138916540Y-72672160D01*
X138914640Y-72670360D01*
X138912840Y-72668460D01*
X138911140Y-72666470D01*
X138909550Y-72664390D01*
X138908070Y-72662230D01*
X138906700Y-72660000D01*
X138905450Y-72657700D01*
X138904320Y-72655340D01*
X138903320Y-72652920D01*
X138902450Y-72650450D01*
X138901700Y-72647940D01*
X138901090Y-72645400D01*
X138900620Y-72642820D01*
X138900270Y-72640230D01*
X138900070Y-72637620D01*
X138900000Y-72635000D01*
X138900000Y-72335000D01*
X138900070Y-72332383D01*
X138900270Y-72329774D01*
X138900620Y-72327178D01*
X138901090Y-72324604D01*
X138901700Y-72322059D01*
X138902450Y-72319549D01*
X138903320Y-72317082D01*
X138904320Y-72314663D01*
X138905450Y-72312300D01*
X138906700Y-72310000D01*
X138908070Y-72307768D01*
X138909550Y-72305611D01*
X138911140Y-72303534D01*
X138912840Y-72301543D01*
X138914640Y-72299645D01*
X138916540Y-72297843D01*
X138918530Y-72296143D01*
X138920610Y-72294549D01*
X138922770Y-72293066D01*
X138925000Y-72291699D01*
X138927300Y-72290450D01*
X138929660Y-72289323D01*
X138932080Y-72288321D01*
X138934550Y-72287447D01*
X138937060Y-72286704D01*
X138939600Y-72286093D01*
X138942180Y-72285616D01*
X138944770Y-72285274D01*
X138947380Y-72285069D01*
X138950000Y-72285000D01*
G37*
X138950000Y-72285000D02*
X139350000Y-72285000D01*
X139352617Y-72285069D01*
X139355226Y-72285274D01*
X139357822Y-72285616D01*
X139360396Y-72286093D01*
X139362941Y-72286704D01*
X139365451Y-72287447D01*
X139367918Y-72288321D01*
X139370337Y-72289323D01*
X139372700Y-72290450D01*
X139375000Y-72291699D01*
X139377232Y-72293066D01*
X139379389Y-72294549D01*
X139381466Y-72296143D01*
X139383457Y-72297843D01*
X139385355Y-72299645D01*
X139387157Y-72301543D01*
X139388857Y-72303534D01*
X139390451Y-72305611D01*
X139391934Y-72307768D01*
X139393301Y-72310000D01*
X139394550Y-72312300D01*
X139395677Y-72314663D01*
X139396679Y-72317082D01*
X139397553Y-72319549D01*
X139398296Y-72322059D01*
X139398907Y-72324604D01*
X139399384Y-72327178D01*
X139399726Y-72329774D01*
X139399931Y-72332383D01*
X139400000Y-72335000D01*
X139400000Y-72635000D01*
X139399931Y-72637620D01*
X139399726Y-72640230D01*
X139399384Y-72642820D01*
X139398907Y-72645400D01*
X139398296Y-72647940D01*
X139397553Y-72650450D01*
X139396679Y-72652920D01*
X139395677Y-72655340D01*
X139394550Y-72657700D01*
X139393301Y-72660000D01*
X139391934Y-72662230D01*
X139390451Y-72664390D01*
X139388857Y-72666470D01*
X139387157Y-72668460D01*
X139385355Y-72670360D01*
X139383457Y-72672160D01*
X139381466Y-72673860D01*
X139379389Y-72675450D01*
X139377232Y-72676930D01*
X139375000Y-72678300D01*
X139372700Y-72679550D01*
X139370337Y-72680680D01*
X139367918Y-72681680D01*
X139365451Y-72682550D01*
X139362941Y-72683300D01*
X139360396Y-72683910D01*
X139357822Y-72684380D01*
X139355226Y-72684730D01*
X139352617Y-72684930D01*
X139350000Y-72685000D01*
X138950000Y-72685000D01*
X138947380Y-72684930D01*
X138944770Y-72684730D01*
X138942180Y-72684380D01*
X138939600Y-72683910D01*
X138937060Y-72683300D01*
X138934550Y-72682550D01*
X138932080Y-72681680D01*
X138929660Y-72680680D01*
X138927300Y-72679550D01*
X138925000Y-72678300D01*
X138922770Y-72676930D01*
X138920610Y-72675450D01*
X138918530Y-72673860D01*
X138916540Y-72672160D01*
X138914640Y-72670360D01*
X138912840Y-72668460D01*
X138911140Y-72666470D01*
X138909550Y-72664390D01*
X138908070Y-72662230D01*
X138906700Y-72660000D01*
X138905450Y-72657700D01*
X138904320Y-72655340D01*
X138903320Y-72652920D01*
X138902450Y-72650450D01*
X138901700Y-72647940D01*
X138901090Y-72645400D01*
X138900620Y-72642820D01*
X138900270Y-72640230D01*
X138900070Y-72637620D01*
X138900000Y-72635000D01*
X138900000Y-72335000D01*
X138900070Y-72332383D01*
X138900270Y-72329774D01*
X138900620Y-72327178D01*
X138901090Y-72324604D01*
X138901700Y-72322059D01*
X138902450Y-72319549D01*
X138903320Y-72317082D01*
X138904320Y-72314663D01*
X138905450Y-72312300D01*
X138906700Y-72310000D01*
X138908070Y-72307768D01*
X138909550Y-72305611D01*
X138911140Y-72303534D01*
X138912840Y-72301543D01*
X138914640Y-72299645D01*
X138916540Y-72297843D01*
X138918530Y-72296143D01*
X138920610Y-72294549D01*
X138922770Y-72293066D01*
X138925000Y-72291699D01*
X138927300Y-72290450D01*
X138929660Y-72289323D01*
X138932080Y-72288321D01*
X138934550Y-72287447D01*
X138937060Y-72286704D01*
X138939600Y-72286093D01*
X138942180Y-72285616D01*
X138944770Y-72285274D01*
X138947380Y-72285069D01*
X138950000Y-72285000D01*
G36*
X138950000Y-71635000D02*
G01*
X139350000Y-71635000D01*
X139352617Y-71635069D01*
X139355226Y-71635274D01*
X139357822Y-71635616D01*
X139360396Y-71636093D01*
X139362941Y-71636704D01*
X139365451Y-71637447D01*
X139367918Y-71638321D01*
X139370337Y-71639323D01*
X139372700Y-71640450D01*
X139375000Y-71641699D01*
X139377232Y-71643066D01*
X139379389Y-71644549D01*
X139381466Y-71646143D01*
X139383457Y-71647843D01*
X139385355Y-71649645D01*
X139387157Y-71651543D01*
X139388857Y-71653534D01*
X139390451Y-71655611D01*
X139391934Y-71657768D01*
X139393301Y-71660000D01*
X139394550Y-71662300D01*
X139395677Y-71664663D01*
X139396679Y-71667082D01*
X139397553Y-71669549D01*
X139398296Y-71672059D01*
X139398907Y-71674604D01*
X139399384Y-71677178D01*
X139399726Y-71679774D01*
X139399931Y-71682383D01*
X139400000Y-71685000D01*
X139400000Y-71985000D01*
X139399931Y-71987617D01*
X139399726Y-71990226D01*
X139399384Y-71992822D01*
X139398907Y-71995396D01*
X139398296Y-71997941D01*
X139397553Y-72000451D01*
X139396679Y-72002918D01*
X139395677Y-72005337D01*
X139394550Y-72007700D01*
X139393301Y-72010000D01*
X139391934Y-72012232D01*
X139390451Y-72014389D01*
X139388857Y-72016466D01*
X139387157Y-72018457D01*
X139385355Y-72020355D01*
X139383457Y-72022157D01*
X139381466Y-72023857D01*
X139379389Y-72025451D01*
X139377232Y-72026934D01*
X139375000Y-72028301D01*
X139372700Y-72029550D01*
X139370337Y-72030677D01*
X139367918Y-72031679D01*
X139365451Y-72032553D01*
X139362941Y-72033296D01*
X139360396Y-72033907D01*
X139357822Y-72034384D01*
X139355226Y-72034726D01*
X139352617Y-72034931D01*
X139350000Y-72035000D01*
X138950000Y-72035000D01*
X138947380Y-72034931D01*
X138944770Y-72034726D01*
X138942180Y-72034384D01*
X138939600Y-72033907D01*
X138937060Y-72033296D01*
X138934550Y-72032553D01*
X138932080Y-72031679D01*
X138929660Y-72030677D01*
X138927300Y-72029550D01*
X138925000Y-72028301D01*
X138922770Y-72026934D01*
X138920610Y-72025451D01*
X138918530Y-72023857D01*
X138916540Y-72022157D01*
X138914640Y-72020355D01*
X138912840Y-72018457D01*
X138911140Y-72016466D01*
X138909550Y-72014389D01*
X138908070Y-72012232D01*
X138906700Y-72010000D01*
X138905450Y-72007700D01*
X138904320Y-72005337D01*
X138903320Y-72002918D01*
X138902450Y-72000451D01*
X138901700Y-71997941D01*
X138901090Y-71995396D01*
X138900620Y-71992822D01*
X138900270Y-71990226D01*
X138900070Y-71987617D01*
X138900000Y-71985000D01*
X138900000Y-71685000D01*
X138900070Y-71682383D01*
X138900270Y-71679774D01*
X138900620Y-71677178D01*
X138901090Y-71674604D01*
X138901700Y-71672059D01*
X138902450Y-71669549D01*
X138903320Y-71667082D01*
X138904320Y-71664663D01*
X138905450Y-71662300D01*
X138906700Y-71660000D01*
X138908070Y-71657768D01*
X138909550Y-71655611D01*
X138911140Y-71653534D01*
X138912840Y-71651543D01*
X138914640Y-71649645D01*
X138916540Y-71647843D01*
X138918530Y-71646143D01*
X138920610Y-71644549D01*
X138922770Y-71643066D01*
X138925000Y-71641699D01*
X138927300Y-71640450D01*
X138929660Y-71639323D01*
X138932080Y-71638321D01*
X138934550Y-71637447D01*
X138937060Y-71636704D01*
X138939600Y-71636093D01*
X138942180Y-71635616D01*
X138944770Y-71635274D01*
X138947380Y-71635069D01*
X138950000Y-71635000D01*
G37*
X138950000Y-71635000D02*
X139350000Y-71635000D01*
X139352617Y-71635069D01*
X139355226Y-71635274D01*
X139357822Y-71635616D01*
X139360396Y-71636093D01*
X139362941Y-71636704D01*
X139365451Y-71637447D01*
X139367918Y-71638321D01*
X139370337Y-71639323D01*
X139372700Y-71640450D01*
X139375000Y-71641699D01*
X139377232Y-71643066D01*
X139379389Y-71644549D01*
X139381466Y-71646143D01*
X139383457Y-71647843D01*
X139385355Y-71649645D01*
X139387157Y-71651543D01*
X139388857Y-71653534D01*
X139390451Y-71655611D01*
X139391934Y-71657768D01*
X139393301Y-71660000D01*
X139394550Y-71662300D01*
X139395677Y-71664663D01*
X139396679Y-71667082D01*
X139397553Y-71669549D01*
X139398296Y-71672059D01*
X139398907Y-71674604D01*
X139399384Y-71677178D01*
X139399726Y-71679774D01*
X139399931Y-71682383D01*
X139400000Y-71685000D01*
X139400000Y-71985000D01*
X139399931Y-71987617D01*
X139399726Y-71990226D01*
X139399384Y-71992822D01*
X139398907Y-71995396D01*
X139398296Y-71997941D01*
X139397553Y-72000451D01*
X139396679Y-72002918D01*
X139395677Y-72005337D01*
X139394550Y-72007700D01*
X139393301Y-72010000D01*
X139391934Y-72012232D01*
X139390451Y-72014389D01*
X139388857Y-72016466D01*
X139387157Y-72018457D01*
X139385355Y-72020355D01*
X139383457Y-72022157D01*
X139381466Y-72023857D01*
X139379389Y-72025451D01*
X139377232Y-72026934D01*
X139375000Y-72028301D01*
X139372700Y-72029550D01*
X139370337Y-72030677D01*
X139367918Y-72031679D01*
X139365451Y-72032553D01*
X139362941Y-72033296D01*
X139360396Y-72033907D01*
X139357822Y-72034384D01*
X139355226Y-72034726D01*
X139352617Y-72034931D01*
X139350000Y-72035000D01*
X138950000Y-72035000D01*
X138947380Y-72034931D01*
X138944770Y-72034726D01*
X138942180Y-72034384D01*
X138939600Y-72033907D01*
X138937060Y-72033296D01*
X138934550Y-72032553D01*
X138932080Y-72031679D01*
X138929660Y-72030677D01*
X138927300Y-72029550D01*
X138925000Y-72028301D01*
X138922770Y-72026934D01*
X138920610Y-72025451D01*
X138918530Y-72023857D01*
X138916540Y-72022157D01*
X138914640Y-72020355D01*
X138912840Y-72018457D01*
X138911140Y-72016466D01*
X138909550Y-72014389D01*
X138908070Y-72012232D01*
X138906700Y-72010000D01*
X138905450Y-72007700D01*
X138904320Y-72005337D01*
X138903320Y-72002918D01*
X138902450Y-72000451D01*
X138901700Y-71997941D01*
X138901090Y-71995396D01*
X138900620Y-71992822D01*
X138900270Y-71990226D01*
X138900070Y-71987617D01*
X138900000Y-71985000D01*
X138900000Y-71685000D01*
X138900070Y-71682383D01*
X138900270Y-71679774D01*
X138900620Y-71677178D01*
X138901090Y-71674604D01*
X138901700Y-71672059D01*
X138902450Y-71669549D01*
X138903320Y-71667082D01*
X138904320Y-71664663D01*
X138905450Y-71662300D01*
X138906700Y-71660000D01*
X138908070Y-71657768D01*
X138909550Y-71655611D01*
X138911140Y-71653534D01*
X138912840Y-71651543D01*
X138914640Y-71649645D01*
X138916540Y-71647843D01*
X138918530Y-71646143D01*
X138920610Y-71644549D01*
X138922770Y-71643066D01*
X138925000Y-71641699D01*
X138927300Y-71640450D01*
X138929660Y-71639323D01*
X138932080Y-71638321D01*
X138934550Y-71637447D01*
X138937060Y-71636704D01*
X138939600Y-71636093D01*
X138942180Y-71635616D01*
X138944770Y-71635274D01*
X138947380Y-71635069D01*
X138950000Y-71635000D01*
G36*
X138950000Y-70985000D02*
G01*
X139350000Y-70985000D01*
X139352617Y-70985069D01*
X139355226Y-70985274D01*
X139357822Y-70985616D01*
X139360396Y-70986093D01*
X139362941Y-70986704D01*
X139365451Y-70987447D01*
X139367918Y-70988321D01*
X139370337Y-70989323D01*
X139372700Y-70990450D01*
X139375000Y-70991699D01*
X139377232Y-70993066D01*
X139379389Y-70994549D01*
X139381466Y-70996143D01*
X139383457Y-70997843D01*
X139385355Y-70999645D01*
X139387157Y-71001543D01*
X139388857Y-71003534D01*
X139390451Y-71005611D01*
X139391934Y-71007768D01*
X139393301Y-71010000D01*
X139394550Y-71012300D01*
X139395677Y-71014663D01*
X139396679Y-71017082D01*
X139397553Y-71019549D01*
X139398296Y-71022059D01*
X139398907Y-71024604D01*
X139399384Y-71027178D01*
X139399726Y-71029774D01*
X139399931Y-71032383D01*
X139400000Y-71035000D01*
X139400000Y-71335000D01*
X139399931Y-71337617D01*
X139399726Y-71340226D01*
X139399384Y-71342822D01*
X139398907Y-71345396D01*
X139398296Y-71347941D01*
X139397553Y-71350451D01*
X139396679Y-71352918D01*
X139395677Y-71355337D01*
X139394550Y-71357700D01*
X139393301Y-71360000D01*
X139391934Y-71362232D01*
X139390451Y-71364389D01*
X139388857Y-71366466D01*
X139387157Y-71368457D01*
X139385355Y-71370355D01*
X139383457Y-71372157D01*
X139381466Y-71373857D01*
X139379389Y-71375451D01*
X139377232Y-71376934D01*
X139375000Y-71378301D01*
X139372700Y-71379550D01*
X139370337Y-71380677D01*
X139367918Y-71381679D01*
X139365451Y-71382553D01*
X139362941Y-71383296D01*
X139360396Y-71383907D01*
X139357822Y-71384384D01*
X139355226Y-71384726D01*
X139352617Y-71384931D01*
X139350000Y-71385000D01*
X138950000Y-71385000D01*
X138947380Y-71384931D01*
X138944770Y-71384726D01*
X138942180Y-71384384D01*
X138939600Y-71383907D01*
X138937060Y-71383296D01*
X138934550Y-71382553D01*
X138932080Y-71381679D01*
X138929660Y-71380677D01*
X138927300Y-71379550D01*
X138925000Y-71378301D01*
X138922770Y-71376934D01*
X138920610Y-71375451D01*
X138918530Y-71373857D01*
X138916540Y-71372157D01*
X138914640Y-71370355D01*
X138912840Y-71368457D01*
X138911140Y-71366466D01*
X138909550Y-71364389D01*
X138908070Y-71362232D01*
X138906700Y-71360000D01*
X138905450Y-71357700D01*
X138904320Y-71355337D01*
X138903320Y-71352918D01*
X138902450Y-71350451D01*
X138901700Y-71347941D01*
X138901090Y-71345396D01*
X138900620Y-71342822D01*
X138900270Y-71340226D01*
X138900070Y-71337617D01*
X138900000Y-71335000D01*
X138900000Y-71035000D01*
X138900070Y-71032383D01*
X138900270Y-71029774D01*
X138900620Y-71027178D01*
X138901090Y-71024604D01*
X138901700Y-71022059D01*
X138902450Y-71019549D01*
X138903320Y-71017082D01*
X138904320Y-71014663D01*
X138905450Y-71012300D01*
X138906700Y-71010000D01*
X138908070Y-71007768D01*
X138909550Y-71005611D01*
X138911140Y-71003534D01*
X138912840Y-71001543D01*
X138914640Y-70999645D01*
X138916540Y-70997843D01*
X138918530Y-70996143D01*
X138920610Y-70994549D01*
X138922770Y-70993066D01*
X138925000Y-70991699D01*
X138927300Y-70990450D01*
X138929660Y-70989323D01*
X138932080Y-70988321D01*
X138934550Y-70987447D01*
X138937060Y-70986704D01*
X138939600Y-70986093D01*
X138942180Y-70985616D01*
X138944770Y-70985274D01*
X138947380Y-70985069D01*
X138950000Y-70985000D01*
G37*
X138950000Y-70985000D02*
X139350000Y-70985000D01*
X139352617Y-70985069D01*
X139355226Y-70985274D01*
X139357822Y-70985616D01*
X139360396Y-70986093D01*
X139362941Y-70986704D01*
X139365451Y-70987447D01*
X139367918Y-70988321D01*
X139370337Y-70989323D01*
X139372700Y-70990450D01*
X139375000Y-70991699D01*
X139377232Y-70993066D01*
X139379389Y-70994549D01*
X139381466Y-70996143D01*
X139383457Y-70997843D01*
X139385355Y-70999645D01*
X139387157Y-71001543D01*
X139388857Y-71003534D01*
X139390451Y-71005611D01*
X139391934Y-71007768D01*
X139393301Y-71010000D01*
X139394550Y-71012300D01*
X139395677Y-71014663D01*
X139396679Y-71017082D01*
X139397553Y-71019549D01*
X139398296Y-71022059D01*
X139398907Y-71024604D01*
X139399384Y-71027178D01*
X139399726Y-71029774D01*
X139399931Y-71032383D01*
X139400000Y-71035000D01*
X139400000Y-71335000D01*
X139399931Y-71337617D01*
X139399726Y-71340226D01*
X139399384Y-71342822D01*
X139398907Y-71345396D01*
X139398296Y-71347941D01*
X139397553Y-71350451D01*
X139396679Y-71352918D01*
X139395677Y-71355337D01*
X139394550Y-71357700D01*
X139393301Y-71360000D01*
X139391934Y-71362232D01*
X139390451Y-71364389D01*
X139388857Y-71366466D01*
X139387157Y-71368457D01*
X139385355Y-71370355D01*
X139383457Y-71372157D01*
X139381466Y-71373857D01*
X139379389Y-71375451D01*
X139377232Y-71376934D01*
X139375000Y-71378301D01*
X139372700Y-71379550D01*
X139370337Y-71380677D01*
X139367918Y-71381679D01*
X139365451Y-71382553D01*
X139362941Y-71383296D01*
X139360396Y-71383907D01*
X139357822Y-71384384D01*
X139355226Y-71384726D01*
X139352617Y-71384931D01*
X139350000Y-71385000D01*
X138950000Y-71385000D01*
X138947380Y-71384931D01*
X138944770Y-71384726D01*
X138942180Y-71384384D01*
X138939600Y-71383907D01*
X138937060Y-71383296D01*
X138934550Y-71382553D01*
X138932080Y-71381679D01*
X138929660Y-71380677D01*
X138927300Y-71379550D01*
X138925000Y-71378301D01*
X138922770Y-71376934D01*
X138920610Y-71375451D01*
X138918530Y-71373857D01*
X138916540Y-71372157D01*
X138914640Y-71370355D01*
X138912840Y-71368457D01*
X138911140Y-71366466D01*
X138909550Y-71364389D01*
X138908070Y-71362232D01*
X138906700Y-71360000D01*
X138905450Y-71357700D01*
X138904320Y-71355337D01*
X138903320Y-71352918D01*
X138902450Y-71350451D01*
X138901700Y-71347941D01*
X138901090Y-71345396D01*
X138900620Y-71342822D01*
X138900270Y-71340226D01*
X138900070Y-71337617D01*
X138900000Y-71335000D01*
X138900000Y-71035000D01*
X138900070Y-71032383D01*
X138900270Y-71029774D01*
X138900620Y-71027178D01*
X138901090Y-71024604D01*
X138901700Y-71022059D01*
X138902450Y-71019549D01*
X138903320Y-71017082D01*
X138904320Y-71014663D01*
X138905450Y-71012300D01*
X138906700Y-71010000D01*
X138908070Y-71007768D01*
X138909550Y-71005611D01*
X138911140Y-71003534D01*
X138912840Y-71001543D01*
X138914640Y-70999645D01*
X138916540Y-70997843D01*
X138918530Y-70996143D01*
X138920610Y-70994549D01*
X138922770Y-70993066D01*
X138925000Y-70991699D01*
X138927300Y-70990450D01*
X138929660Y-70989323D01*
X138932080Y-70988321D01*
X138934550Y-70987447D01*
X138937060Y-70986704D01*
X138939600Y-70986093D01*
X138942180Y-70985616D01*
X138944770Y-70985274D01*
X138947380Y-70985069D01*
X138950000Y-70985000D01*
G36*
X138950000Y-70335000D02*
G01*
X139350000Y-70335000D01*
X139352617Y-70335070D01*
X139355226Y-70335270D01*
X139357822Y-70335620D01*
X139360396Y-70336090D01*
X139362941Y-70336700D01*
X139365451Y-70337450D01*
X139367918Y-70338320D01*
X139370337Y-70339320D01*
X139372700Y-70340450D01*
X139375000Y-70341700D01*
X139377232Y-70343070D01*
X139379389Y-70344550D01*
X139381466Y-70346140D01*
X139383457Y-70347840D01*
X139385355Y-70349640D01*
X139387157Y-70351540D01*
X139388857Y-70353530D01*
X139390451Y-70355610D01*
X139391934Y-70357770D01*
X139393301Y-70360000D01*
X139394550Y-70362300D01*
X139395677Y-70364660D01*
X139396679Y-70367080D01*
X139397553Y-70369550D01*
X139398296Y-70372060D01*
X139398907Y-70374600D01*
X139399384Y-70377180D01*
X139399726Y-70379770D01*
X139399931Y-70382380D01*
X139400000Y-70385000D01*
X139400000Y-70685000D01*
X139399931Y-70687617D01*
X139399726Y-70690226D01*
X139399384Y-70692822D01*
X139398907Y-70695396D01*
X139398296Y-70697941D01*
X139397553Y-70700451D01*
X139396679Y-70702918D01*
X139395677Y-70705337D01*
X139394550Y-70707700D01*
X139393301Y-70710000D01*
X139391934Y-70712232D01*
X139390451Y-70714389D01*
X139388857Y-70716466D01*
X139387157Y-70718457D01*
X139385355Y-70720355D01*
X139383457Y-70722157D01*
X139381466Y-70723857D01*
X139379389Y-70725451D01*
X139377232Y-70726934D01*
X139375000Y-70728301D01*
X139372700Y-70729550D01*
X139370337Y-70730677D01*
X139367918Y-70731679D01*
X139365451Y-70732553D01*
X139362941Y-70733296D01*
X139360396Y-70733907D01*
X139357822Y-70734384D01*
X139355226Y-70734726D01*
X139352617Y-70734931D01*
X139350000Y-70735000D01*
X138950000Y-70735000D01*
X138947380Y-70734931D01*
X138944770Y-70734726D01*
X138942180Y-70734384D01*
X138939600Y-70733907D01*
X138937060Y-70733296D01*
X138934550Y-70732553D01*
X138932080Y-70731679D01*
X138929660Y-70730677D01*
X138927300Y-70729550D01*
X138925000Y-70728301D01*
X138922770Y-70726934D01*
X138920610Y-70725451D01*
X138918530Y-70723857D01*
X138916540Y-70722157D01*
X138914640Y-70720355D01*
X138912840Y-70718457D01*
X138911140Y-70716466D01*
X138909550Y-70714389D01*
X138908070Y-70712232D01*
X138906700Y-70710000D01*
X138905450Y-70707700D01*
X138904320Y-70705337D01*
X138903320Y-70702918D01*
X138902450Y-70700451D01*
X138901700Y-70697941D01*
X138901090Y-70695396D01*
X138900620Y-70692822D01*
X138900270Y-70690226D01*
X138900070Y-70687617D01*
X138900000Y-70685000D01*
X138900000Y-70385000D01*
X138900070Y-70382380D01*
X138900270Y-70379770D01*
X138900620Y-70377180D01*
X138901090Y-70374600D01*
X138901700Y-70372060D01*
X138902450Y-70369550D01*
X138903320Y-70367080D01*
X138904320Y-70364660D01*
X138905450Y-70362300D01*
X138906700Y-70360000D01*
X138908070Y-70357770D01*
X138909550Y-70355610D01*
X138911140Y-70353530D01*
X138912840Y-70351540D01*
X138914640Y-70349640D01*
X138916540Y-70347840D01*
X138918530Y-70346140D01*
X138920610Y-70344550D01*
X138922770Y-70343070D01*
X138925000Y-70341700D01*
X138927300Y-70340450D01*
X138929660Y-70339320D01*
X138932080Y-70338320D01*
X138934550Y-70337450D01*
X138937060Y-70336700D01*
X138939600Y-70336090D01*
X138942180Y-70335620D01*
X138944770Y-70335270D01*
X138947380Y-70335070D01*
X138950000Y-70335000D01*
G37*
X138950000Y-70335000D02*
X139350000Y-70335000D01*
X139352617Y-70335070D01*
X139355226Y-70335270D01*
X139357822Y-70335620D01*
X139360396Y-70336090D01*
X139362941Y-70336700D01*
X139365451Y-70337450D01*
X139367918Y-70338320D01*
X139370337Y-70339320D01*
X139372700Y-70340450D01*
X139375000Y-70341700D01*
X139377232Y-70343070D01*
X139379389Y-70344550D01*
X139381466Y-70346140D01*
X139383457Y-70347840D01*
X139385355Y-70349640D01*
X139387157Y-70351540D01*
X139388857Y-70353530D01*
X139390451Y-70355610D01*
X139391934Y-70357770D01*
X139393301Y-70360000D01*
X139394550Y-70362300D01*
X139395677Y-70364660D01*
X139396679Y-70367080D01*
X139397553Y-70369550D01*
X139398296Y-70372060D01*
X139398907Y-70374600D01*
X139399384Y-70377180D01*
X139399726Y-70379770D01*
X139399931Y-70382380D01*
X139400000Y-70385000D01*
X139400000Y-70685000D01*
X139399931Y-70687617D01*
X139399726Y-70690226D01*
X139399384Y-70692822D01*
X139398907Y-70695396D01*
X139398296Y-70697941D01*
X139397553Y-70700451D01*
X139396679Y-70702918D01*
X139395677Y-70705337D01*
X139394550Y-70707700D01*
X139393301Y-70710000D01*
X139391934Y-70712232D01*
X139390451Y-70714389D01*
X139388857Y-70716466D01*
X139387157Y-70718457D01*
X139385355Y-70720355D01*
X139383457Y-70722157D01*
X139381466Y-70723857D01*
X139379389Y-70725451D01*
X139377232Y-70726934D01*
X139375000Y-70728301D01*
X139372700Y-70729550D01*
X139370337Y-70730677D01*
X139367918Y-70731679D01*
X139365451Y-70732553D01*
X139362941Y-70733296D01*
X139360396Y-70733907D01*
X139357822Y-70734384D01*
X139355226Y-70734726D01*
X139352617Y-70734931D01*
X139350000Y-70735000D01*
X138950000Y-70735000D01*
X138947380Y-70734931D01*
X138944770Y-70734726D01*
X138942180Y-70734384D01*
X138939600Y-70733907D01*
X138937060Y-70733296D01*
X138934550Y-70732553D01*
X138932080Y-70731679D01*
X138929660Y-70730677D01*
X138927300Y-70729550D01*
X138925000Y-70728301D01*
X138922770Y-70726934D01*
X138920610Y-70725451D01*
X138918530Y-70723857D01*
X138916540Y-70722157D01*
X138914640Y-70720355D01*
X138912840Y-70718457D01*
X138911140Y-70716466D01*
X138909550Y-70714389D01*
X138908070Y-70712232D01*
X138906700Y-70710000D01*
X138905450Y-70707700D01*
X138904320Y-70705337D01*
X138903320Y-70702918D01*
X138902450Y-70700451D01*
X138901700Y-70697941D01*
X138901090Y-70695396D01*
X138900620Y-70692822D01*
X138900270Y-70690226D01*
X138900070Y-70687617D01*
X138900000Y-70685000D01*
X138900000Y-70385000D01*
X138900070Y-70382380D01*
X138900270Y-70379770D01*
X138900620Y-70377180D01*
X138901090Y-70374600D01*
X138901700Y-70372060D01*
X138902450Y-70369550D01*
X138903320Y-70367080D01*
X138904320Y-70364660D01*
X138905450Y-70362300D01*
X138906700Y-70360000D01*
X138908070Y-70357770D01*
X138909550Y-70355610D01*
X138911140Y-70353530D01*
X138912840Y-70351540D01*
X138914640Y-70349640D01*
X138916540Y-70347840D01*
X138918530Y-70346140D01*
X138920610Y-70344550D01*
X138922770Y-70343070D01*
X138925000Y-70341700D01*
X138927300Y-70340450D01*
X138929660Y-70339320D01*
X138932080Y-70338320D01*
X138934550Y-70337450D01*
X138937060Y-70336700D01*
X138939600Y-70336090D01*
X138942180Y-70335620D01*
X138944770Y-70335270D01*
X138947380Y-70335070D01*
X138950000Y-70335000D01*
%TD*%
D12*
%TO.C,SWin1*%
X157210000Y-62880000D03*
X149910000Y-62880000D03*
X149910000Y-60670000D03*
X157210000Y-60670000D03*
D13*
X151310000Y-63530000D03*
X152810000Y-63530000D03*
X155810000Y-63530000D03*
%TD*%
%TO.C,Rpg1*%
G36*
G01*
X137335000Y-73105000D02*
X136085000Y-73105000D01*
G75*
G02*
X135835000Y-72855000I0J250000D01*
G01*
X135835000Y-72105000D01*
G75*
G02*
X136085000Y-71855000I250000J0D01*
G01*
X137335000Y-71855000D01*
G75*
G02*
X137585000Y-72105000I0J-250000D01*
G01*
X137585000Y-72855000D01*
G75*
G02*
X137335000Y-73105000I-250000J0D01*
G01*
G37*
G36*
G01*
X137335000Y-75905000D02*
X136085000Y-75905000D01*
G75*
G02*
X135835000Y-75655000I0J250000D01*
G01*
X135835000Y-74905000D01*
G75*
G02*
X136085000Y-74655000I250000J0D01*
G01*
X137335000Y-74655000D01*
G75*
G02*
X137585000Y-74905000I0J-250000D01*
G01*
X137585000Y-75655000D01*
G75*
G02*
X137335000Y-75905000I-250000J0D01*
G01*
G37*
%TD*%
%TO.C,Rled1*%
G36*
G01*
X141945000Y-61945000D02*
X141945000Y-63195000D01*
G75*
G02*
X141695000Y-63445000I-250000J0D01*
G01*
X140945000Y-63445000D01*
G75*
G02*
X140695000Y-63195000I0J250000D01*
G01*
X140695000Y-61945000D01*
G75*
G02*
X140945000Y-61695000I250000J0D01*
G01*
X141695000Y-61695000D01*
G75*
G02*
X141945000Y-61945000I0J-250000D01*
G01*
G37*
G36*
G01*
X144745000Y-61945000D02*
X144745000Y-63195000D01*
G75*
G02*
X144495000Y-63445000I-250000J0D01*
G01*
X143745000Y-63445000D01*
G75*
G02*
X143495000Y-63195000I0J250000D01*
G01*
X143495000Y-61945000D01*
G75*
G02*
X143745000Y-61695000I250000J0D01*
G01*
X144495000Y-61695000D01*
G75*
G02*
X144745000Y-61945000I0J-250000D01*
G01*
G37*
%TD*%
%TO.C,Rfbt1*%
G36*
G01*
X128885000Y-69725000D02*
X130135000Y-69725000D01*
G75*
G02*
X130385000Y-69975000I0J-250000D01*
G01*
X130385000Y-70725000D01*
G75*
G02*
X130135000Y-70975000I-250000J0D01*
G01*
X128885000Y-70975000D01*
G75*
G02*
X128635000Y-70725000I0J250000D01*
G01*
X128635000Y-69975000D01*
G75*
G02*
X128885000Y-69725000I250000J0D01*
G01*
G37*
G36*
G01*
X128885000Y-66925000D02*
X130135000Y-66925000D01*
G75*
G02*
X130385000Y-67175000I0J-250000D01*
G01*
X130385000Y-67925000D01*
G75*
G02*
X130135000Y-68175000I-250000J0D01*
G01*
X128885000Y-68175000D01*
G75*
G02*
X128635000Y-67925000I0J250000D01*
G01*
X128635000Y-67175000D01*
G75*
G02*
X128885000Y-66925000I250000J0D01*
G01*
G37*
%TD*%
%TO.C,Rfbb1*%
G36*
G01*
X135075000Y-68165000D02*
X133825000Y-68165000D01*
G75*
G02*
X133575000Y-67915000I0J250000D01*
G01*
X133575000Y-67165000D01*
G75*
G02*
X133825000Y-66915000I250000J0D01*
G01*
X135075000Y-66915000D01*
G75*
G02*
X135325000Y-67165000I0J-250000D01*
G01*
X135325000Y-67915000D01*
G75*
G02*
X135075000Y-68165000I-250000J0D01*
G01*
G37*
G36*
G01*
X135075000Y-70965000D02*
X133825000Y-70965000D01*
G75*
G02*
X133575000Y-70715000I0J250000D01*
G01*
X133575000Y-69965000D01*
G75*
G02*
X133825000Y-69715000I250000J0D01*
G01*
X135075000Y-69715000D01*
G75*
G02*
X135325000Y-69965000I0J-250000D01*
G01*
X135325000Y-70715000D01*
G75*
G02*
X135075000Y-70965000I-250000J0D01*
G01*
G37*
%TD*%
%TO.C,Don1*%
G36*
G01*
X137165000Y-63155000D02*
X137165000Y-61905000D01*
G75*
G02*
X137415000Y-61655000I250000J0D01*
G01*
X138165000Y-61655000D01*
G75*
G02*
X138415000Y-61905000I0J-250000D01*
G01*
X138415000Y-63155000D01*
G75*
G02*
X138165000Y-63405000I-250000J0D01*
G01*
X137415000Y-63405000D01*
G75*
G02*
X137165000Y-63155000I0J250000D01*
G01*
G37*
G36*
G01*
X134365000Y-63155000D02*
X134365000Y-61905000D01*
G75*
G02*
X134615000Y-61655000I250000J0D01*
G01*
X135365000Y-61655000D01*
G75*
G02*
X135615000Y-61905000I0J-250000D01*
G01*
X135615000Y-63155000D01*
G75*
G02*
X135365000Y-63405000I-250000J0D01*
G01*
X134615000Y-63405000D01*
G75*
G02*
X134365000Y-63155000I0J250000D01*
G01*
G37*
%TD*%
%TO.C,Css1*%
G36*
G01*
X139545000Y-74825000D02*
X139545000Y-76075000D01*
G75*
G02*
X139295000Y-76325000I-250000J0D01*
G01*
X138545000Y-76325000D01*
G75*
G02*
X138295000Y-76075000I0J250000D01*
G01*
X138295000Y-74825000D01*
G75*
G02*
X138545000Y-74575000I250000J0D01*
G01*
X139295000Y-74575000D01*
G75*
G02*
X139545000Y-74825000I0J-250000D01*
G01*
G37*
G36*
G01*
X142345000Y-74825000D02*
X142345000Y-76075000D01*
G75*
G02*
X142095000Y-76325000I-250000J0D01*
G01*
X141345000Y-76325000D01*
G75*
G02*
X141095000Y-76075000I0J250000D01*
G01*
X141095000Y-74825000D01*
G75*
G02*
X141345000Y-74575000I250000J0D01*
G01*
X142095000Y-74575000D01*
G75*
G02*
X142345000Y-74825000I0J-250000D01*
G01*
G37*
%TD*%
%TO.C,Cout1*%
G36*
G01*
X141695000Y-67885000D02*
X141695000Y-66635000D01*
G75*
G02*
X141945000Y-66385000I250000J0D01*
G01*
X142695000Y-66385000D01*
G75*
G02*
X142945000Y-66635000I0J-250000D01*
G01*
X142945000Y-67885000D01*
G75*
G02*
X142695000Y-68135000I-250000J0D01*
G01*
X141945000Y-68135000D01*
G75*
G02*
X141695000Y-67885000I0J250000D01*
G01*
G37*
G36*
G01*
X138895000Y-67885000D02*
X138895000Y-66635000D01*
G75*
G02*
X139145000Y-66385000I250000J0D01*
G01*
X139895000Y-66385000D01*
G75*
G02*
X140145000Y-66635000I0J-250000D01*
G01*
X140145000Y-67885000D01*
G75*
G02*
X139895000Y-68135000I-250000J0D01*
G01*
X139145000Y-68135000D01*
G75*
G02*
X138895000Y-67885000I0J250000D01*
G01*
G37*
%TD*%
%TO.C,Cin1*%
G36*
G01*
X146545000Y-70705000D02*
X145295000Y-70705000D01*
G75*
G02*
X145045000Y-70455000I0J250000D01*
G01*
X145045000Y-69705000D01*
G75*
G02*
X145295000Y-69455000I250000J0D01*
G01*
X146545000Y-69455000D01*
G75*
G02*
X146795000Y-69705000I0J-250000D01*
G01*
X146795000Y-70455000D01*
G75*
G02*
X146545000Y-70705000I-250000J0D01*
G01*
G37*
G36*
G01*
X146545000Y-73505000D02*
X145295000Y-73505000D01*
G75*
G02*
X145045000Y-73255000I0J250000D01*
G01*
X145045000Y-72505000D01*
G75*
G02*
X145295000Y-72255000I250000J0D01*
G01*
X146545000Y-72255000D01*
G75*
G02*
X146795000Y-72505000I0J-250000D01*
G01*
X146795000Y-73255000D01*
G75*
G02*
X146545000Y-73505000I-250000J0D01*
G01*
G37*
%TD*%
M02*
