%TF.GenerationSoftware,KiCad,Pcbnew,(5.1.6)-1*%
%TF.CreationDate,2021-03-22T01:22:11+02:00*%
%TF.ProjectId,Yu_9V_charger,59755f39-565f-4636-9861-726765722e6b,rev?*%
%TF.SameCoordinates,Original*%
%TF.FileFunction,Legend,Top*%
%TF.FilePolarity,Positive*%
%FSLAX46Y46*%
G04 Gerber Fmt 4.6, Leading zero omitted, Abs format (unit mm)*
G04 Created by KiCad (PCBNEW (5.1.6)-1) date 2021-03-22 01:22:11*
%MOMM*%
%LPD*%
G01*
G04 APERTURE LIST*
%ADD10C,0.120000*%
%ADD11C,0.127000*%
%ADD12C,0.200000*%
%ADD13C,0.150000*%
%ADD14C,0.050000*%
G04 APERTURE END LIST*
D10*
%TO.C,SWin1*%
X152160000Y-63220000D02*
X151960000Y-63220000D01*
X154960000Y-59080000D02*
X154760000Y-58870000D01*
X153660000Y-59080000D02*
X153860000Y-58870000D01*
X154960000Y-60370000D02*
X154960000Y-59080000D01*
X154760000Y-58870000D02*
X153860000Y-58870000D01*
X153660000Y-59080000D02*
X153660000Y-60370000D01*
X156410000Y-60370000D02*
X150710000Y-60370000D01*
X155160000Y-63220000D02*
X153460000Y-63220000D01*
X157010000Y-62170000D02*
X157010000Y-61380000D01*
X150110000Y-61380000D02*
X150110000Y-62170000D01*
D11*
%TO.C,U1*%
X138800000Y-73055000D02*
X141600000Y-73055000D01*
X141600000Y-69965000D02*
X138800000Y-69965000D01*
D12*
X142200000Y-72660000D02*
G75*
G03*
X142200000Y-72660000I-100000J0D01*
G01*
D10*
%TO.C,Rpg1*%
X137620000Y-74482064D02*
X137620000Y-73277936D01*
X135800000Y-74482064D02*
X135800000Y-73277936D01*
%TO.C,Rled1*%
X143322064Y-61660000D02*
X142117936Y-61660000D01*
X143322064Y-63480000D02*
X142117936Y-63480000D01*
%TO.C,Rfbt1*%
X128600000Y-68347936D02*
X128600000Y-69552064D01*
X130420000Y-68347936D02*
X130420000Y-69552064D01*
%TO.C,Rfbb1*%
X135360000Y-69542064D02*
X135360000Y-68337936D01*
X133540000Y-69542064D02*
X133540000Y-68337936D01*
%TO.C,Jout1*%
X124560000Y-65260000D02*
X124560000Y-67060000D01*
X109380000Y-76970000D02*
X109380000Y-76320000D01*
X109380000Y-62350000D02*
X108860000Y-62350000D01*
X117490000Y-76320000D02*
X109380000Y-76320000D01*
X108860000Y-62350000D02*
X108860000Y-76970000D01*
X108860000Y-76970000D02*
X109380000Y-76970000D01*
X124340000Y-76320000D02*
X121010000Y-76320000D01*
X124340000Y-63000000D02*
X121010000Y-63000000D01*
X124340000Y-63000000D02*
X124340000Y-76320000D01*
X109380000Y-63000000D02*
X109380000Y-62350000D01*
X109380000Y-63000000D02*
X117490000Y-63000000D01*
%TO.C,Don1*%
X134105000Y-63665000D02*
X137990000Y-63665000D01*
X134105000Y-61395000D02*
X134105000Y-63665000D01*
X137990000Y-61395000D02*
X134105000Y-61395000D01*
%TO.C,Css1*%
X140922064Y-74540000D02*
X139717936Y-74540000D01*
X140922064Y-76360000D02*
X139717936Y-76360000D01*
%TO.C,Cout1*%
X140317936Y-68170000D02*
X141522064Y-68170000D01*
X140317936Y-66350000D02*
X141522064Y-66350000D01*
%TO.C,Cin1*%
X146830000Y-72082064D02*
X146830000Y-70877936D01*
X145010000Y-72082064D02*
X145010000Y-70877936D01*
%TO.C,SWin1*%
D13*
X151536190Y-67304761D02*
X151679047Y-67352380D01*
X151917142Y-67352380D01*
X152012380Y-67304761D01*
X152060000Y-67257142D01*
X152107619Y-67161904D01*
X152107619Y-67066666D01*
X152060000Y-66971428D01*
X152012380Y-66923809D01*
X151917142Y-66876190D01*
X151726666Y-66828571D01*
X151631428Y-66780952D01*
X151583809Y-66733333D01*
X151536190Y-66638095D01*
X151536190Y-66542857D01*
X151583809Y-66447619D01*
X151631428Y-66400000D01*
X151726666Y-66352380D01*
X151964761Y-66352380D01*
X152107619Y-66400000D01*
X152440952Y-66352380D02*
X152679047Y-67352380D01*
X152869523Y-66638095D01*
X153060000Y-67352380D01*
X153298095Y-66352380D01*
X153679047Y-67352380D02*
X153679047Y-66685714D01*
X153679047Y-66352380D02*
X153631428Y-66400000D01*
X153679047Y-66447619D01*
X153726666Y-66400000D01*
X153679047Y-66352380D01*
X153679047Y-66447619D01*
X154155238Y-66685714D02*
X154155238Y-67352380D01*
X154155238Y-66780952D02*
X154202857Y-66733333D01*
X154298095Y-66685714D01*
X154440952Y-66685714D01*
X154536190Y-66733333D01*
X154583809Y-66828571D01*
X154583809Y-67352380D01*
X155583809Y-67352380D02*
X155012380Y-67352380D01*
X155298095Y-67352380D02*
X155298095Y-66352380D01*
X155202857Y-66495238D01*
X155107619Y-66590476D01*
X155012380Y-66638095D01*
%TO.C,U1*%
D14*
X139886780Y-73365923D02*
X139886780Y-73884019D01*
X139917257Y-73944971D01*
X139947733Y-73975447D01*
X140008685Y-74005923D01*
X140130590Y-74005923D01*
X140191542Y-73975447D01*
X140222019Y-73944971D01*
X140252495Y-73884019D01*
X140252495Y-73365923D01*
X140892495Y-74005923D02*
X140526780Y-74005923D01*
X140709638Y-74005923D02*
X140709638Y-73365923D01*
X140648685Y-73457352D01*
X140587733Y-73518304D01*
X140526780Y-73548780D01*
X136600380Y-68953123D02*
X136966095Y-68953123D01*
X136783238Y-69593123D02*
X136783238Y-68953123D01*
X137179428Y-69593123D02*
X137179428Y-68953123D01*
X137423238Y-68953123D01*
X137484190Y-68983600D01*
X137514666Y-69014076D01*
X137545142Y-69075028D01*
X137545142Y-69166457D01*
X137514666Y-69227409D01*
X137484190Y-69257885D01*
X137423238Y-69288361D01*
X137179428Y-69288361D01*
X137788952Y-69562647D02*
X137880380Y-69593123D01*
X138032761Y-69593123D01*
X138093714Y-69562647D01*
X138124190Y-69532171D01*
X138154666Y-69471219D01*
X138154666Y-69410266D01*
X138124190Y-69349314D01*
X138093714Y-69318838D01*
X138032761Y-69288361D01*
X137910857Y-69257885D01*
X137849904Y-69227409D01*
X137819428Y-69196933D01*
X137788952Y-69135980D01*
X137788952Y-69075028D01*
X137819428Y-69014076D01*
X137849904Y-68983600D01*
X137910857Y-68953123D01*
X138063238Y-68953123D01*
X138154666Y-68983600D01*
X138520380Y-69227409D02*
X138459428Y-69196933D01*
X138428952Y-69166457D01*
X138398476Y-69105504D01*
X138398476Y-69075028D01*
X138428952Y-69014076D01*
X138459428Y-68983600D01*
X138520380Y-68953123D01*
X138642285Y-68953123D01*
X138703238Y-68983600D01*
X138733714Y-69014076D01*
X138764190Y-69075028D01*
X138764190Y-69105504D01*
X138733714Y-69166457D01*
X138703238Y-69196933D01*
X138642285Y-69227409D01*
X138520380Y-69227409D01*
X138459428Y-69257885D01*
X138428952Y-69288361D01*
X138398476Y-69349314D01*
X138398476Y-69471219D01*
X138428952Y-69532171D01*
X138459428Y-69562647D01*
X138520380Y-69593123D01*
X138642285Y-69593123D01*
X138703238Y-69562647D01*
X138733714Y-69532171D01*
X138764190Y-69471219D01*
X138764190Y-69349314D01*
X138733714Y-69288361D01*
X138703238Y-69257885D01*
X138642285Y-69227409D01*
X139008000Y-69014076D02*
X139038476Y-68983600D01*
X139099428Y-68953123D01*
X139251809Y-68953123D01*
X139312761Y-68983600D01*
X139343238Y-69014076D01*
X139373714Y-69075028D01*
X139373714Y-69135980D01*
X139343238Y-69227409D01*
X138977523Y-69593123D01*
X139373714Y-69593123D01*
X139983238Y-69593123D02*
X139617523Y-69593123D01*
X139800380Y-69593123D02*
X139800380Y-68953123D01*
X139739428Y-69044552D01*
X139678476Y-69105504D01*
X139617523Y-69135980D01*
X140562285Y-68953123D02*
X140257523Y-68953123D01*
X140227047Y-69257885D01*
X140257523Y-69227409D01*
X140318476Y-69196933D01*
X140470857Y-69196933D01*
X140531809Y-69227409D01*
X140562285Y-69257885D01*
X140592761Y-69318838D01*
X140592761Y-69471219D01*
X140562285Y-69532171D01*
X140531809Y-69562647D01*
X140470857Y-69593123D01*
X140318476Y-69593123D01*
X140257523Y-69562647D01*
X140227047Y-69532171D01*
X140988952Y-68953123D02*
X141049904Y-68953123D01*
X141110857Y-68983600D01*
X141141333Y-69014076D01*
X141171809Y-69075028D01*
X141202285Y-69196933D01*
X141202285Y-69349314D01*
X141171809Y-69471219D01*
X141141333Y-69532171D01*
X141110857Y-69562647D01*
X141049904Y-69593123D01*
X140988952Y-69593123D01*
X140928000Y-69562647D01*
X140897523Y-69532171D01*
X140867047Y-69471219D01*
X140836571Y-69349314D01*
X140836571Y-69196933D01*
X140867047Y-69075028D01*
X140897523Y-69014076D01*
X140928000Y-68983600D01*
X140988952Y-68953123D01*
X141446095Y-69562647D02*
X141537523Y-69593123D01*
X141689904Y-69593123D01*
X141750857Y-69562647D01*
X141781333Y-69532171D01*
X141811809Y-69471219D01*
X141811809Y-69410266D01*
X141781333Y-69349314D01*
X141750857Y-69318838D01*
X141689904Y-69288361D01*
X141568000Y-69257885D01*
X141507047Y-69227409D01*
X141476571Y-69196933D01*
X141446095Y-69135980D01*
X141446095Y-69075028D01*
X141476571Y-69014076D01*
X141507047Y-68983600D01*
X141568000Y-68953123D01*
X141720380Y-68953123D01*
X141811809Y-68983600D01*
X142086095Y-69593123D02*
X142086095Y-68953123D01*
X142695619Y-69593123D02*
X142390857Y-69593123D01*
X142390857Y-68953123D01*
X143274666Y-69593123D02*
X143061333Y-69288361D01*
X142908952Y-69593123D02*
X142908952Y-68953123D01*
X143152761Y-68953123D01*
X143213714Y-68983600D01*
X143244190Y-69014076D01*
X143274666Y-69075028D01*
X143274666Y-69166457D01*
X143244190Y-69227409D01*
X143213714Y-69257885D01*
X143152761Y-69288361D01*
X142908952Y-69288361D01*
%TO.C,Rpg1*%
D13*
X135342380Y-74951428D02*
X134866190Y-75284761D01*
X135342380Y-75522857D02*
X134342380Y-75522857D01*
X134342380Y-75141904D01*
X134390000Y-75046666D01*
X134437619Y-74999047D01*
X134532857Y-74951428D01*
X134675714Y-74951428D01*
X134770952Y-74999047D01*
X134818571Y-75046666D01*
X134866190Y-75141904D01*
X134866190Y-75522857D01*
X134675714Y-74522857D02*
X135675714Y-74522857D01*
X134723333Y-74522857D02*
X134675714Y-74427619D01*
X134675714Y-74237142D01*
X134723333Y-74141904D01*
X134770952Y-74094285D01*
X134866190Y-74046666D01*
X135151904Y-74046666D01*
X135247142Y-74094285D01*
X135294761Y-74141904D01*
X135342380Y-74237142D01*
X135342380Y-74427619D01*
X135294761Y-74522857D01*
X134675714Y-73189523D02*
X135485238Y-73189523D01*
X135580476Y-73237142D01*
X135628095Y-73284761D01*
X135675714Y-73380000D01*
X135675714Y-73522857D01*
X135628095Y-73618095D01*
X135294761Y-73189523D02*
X135342380Y-73284761D01*
X135342380Y-73475238D01*
X135294761Y-73570476D01*
X135247142Y-73618095D01*
X135151904Y-73665714D01*
X134866190Y-73665714D01*
X134770952Y-73618095D01*
X134723333Y-73570476D01*
X134675714Y-73475238D01*
X134675714Y-73284761D01*
X134723333Y-73189523D01*
X135342380Y-72189523D02*
X135342380Y-72760952D01*
X135342380Y-72475238D02*
X134342380Y-72475238D01*
X134485238Y-72570476D01*
X134580476Y-72665714D01*
X134628095Y-72760952D01*
%TO.C,Rled1*%
X141410476Y-64842380D02*
X141077142Y-64366190D01*
X140839047Y-64842380D02*
X140839047Y-63842380D01*
X141220000Y-63842380D01*
X141315238Y-63890000D01*
X141362857Y-63937619D01*
X141410476Y-64032857D01*
X141410476Y-64175714D01*
X141362857Y-64270952D01*
X141315238Y-64318571D01*
X141220000Y-64366190D01*
X140839047Y-64366190D01*
X141981904Y-64842380D02*
X141886666Y-64794761D01*
X141839047Y-64699523D01*
X141839047Y-63842380D01*
X142743809Y-64794761D02*
X142648571Y-64842380D01*
X142458095Y-64842380D01*
X142362857Y-64794761D01*
X142315238Y-64699523D01*
X142315238Y-64318571D01*
X142362857Y-64223333D01*
X142458095Y-64175714D01*
X142648571Y-64175714D01*
X142743809Y-64223333D01*
X142791428Y-64318571D01*
X142791428Y-64413809D01*
X142315238Y-64509047D01*
X143648571Y-64842380D02*
X143648571Y-63842380D01*
X143648571Y-64794761D02*
X143553333Y-64842380D01*
X143362857Y-64842380D01*
X143267619Y-64794761D01*
X143220000Y-64747142D01*
X143172380Y-64651904D01*
X143172380Y-64366190D01*
X143220000Y-64270952D01*
X143267619Y-64223333D01*
X143362857Y-64175714D01*
X143553333Y-64175714D01*
X143648571Y-64223333D01*
X144648571Y-64842380D02*
X144077142Y-64842380D01*
X144362857Y-64842380D02*
X144362857Y-63842380D01*
X144267619Y-63985238D01*
X144172380Y-64080476D01*
X144077142Y-64128095D01*
%TO.C,Rfbt1*%
X131782380Y-70140476D02*
X131306190Y-70473809D01*
X131782380Y-70711904D02*
X130782380Y-70711904D01*
X130782380Y-70330952D01*
X130830000Y-70235714D01*
X130877619Y-70188095D01*
X130972857Y-70140476D01*
X131115714Y-70140476D01*
X131210952Y-70188095D01*
X131258571Y-70235714D01*
X131306190Y-70330952D01*
X131306190Y-70711904D01*
X131115714Y-69854761D02*
X131115714Y-69473809D01*
X131782380Y-69711904D02*
X130925238Y-69711904D01*
X130830000Y-69664285D01*
X130782380Y-69569047D01*
X130782380Y-69473809D01*
X131782380Y-69140476D02*
X130782380Y-69140476D01*
X131163333Y-69140476D02*
X131115714Y-69045238D01*
X131115714Y-68854761D01*
X131163333Y-68759523D01*
X131210952Y-68711904D01*
X131306190Y-68664285D01*
X131591904Y-68664285D01*
X131687142Y-68711904D01*
X131734761Y-68759523D01*
X131782380Y-68854761D01*
X131782380Y-69045238D01*
X131734761Y-69140476D01*
X131115714Y-68378571D02*
X131115714Y-67997619D01*
X130782380Y-68235714D02*
X131639523Y-68235714D01*
X131734761Y-68188095D01*
X131782380Y-68092857D01*
X131782380Y-67997619D01*
X131782380Y-67140476D02*
X131782380Y-67711904D01*
X131782380Y-67426190D02*
X130782380Y-67426190D01*
X130925238Y-67521428D01*
X131020476Y-67616666D01*
X131068095Y-67711904D01*
%TO.C,Rfbb1*%
X133082380Y-70297142D02*
X132606190Y-70630476D01*
X133082380Y-70868571D02*
X132082380Y-70868571D01*
X132082380Y-70487619D01*
X132130000Y-70392380D01*
X132177619Y-70344761D01*
X132272857Y-70297142D01*
X132415714Y-70297142D01*
X132510952Y-70344761D01*
X132558571Y-70392380D01*
X132606190Y-70487619D01*
X132606190Y-70868571D01*
X132415714Y-70011428D02*
X132415714Y-69630476D01*
X133082380Y-69868571D02*
X132225238Y-69868571D01*
X132130000Y-69820952D01*
X132082380Y-69725714D01*
X132082380Y-69630476D01*
X133082380Y-69297142D02*
X132082380Y-69297142D01*
X132463333Y-69297142D02*
X132415714Y-69201904D01*
X132415714Y-69011428D01*
X132463333Y-68916190D01*
X132510952Y-68868571D01*
X132606190Y-68820952D01*
X132891904Y-68820952D01*
X132987142Y-68868571D01*
X133034761Y-68916190D01*
X133082380Y-69011428D01*
X133082380Y-69201904D01*
X133034761Y-69297142D01*
X133082380Y-68392380D02*
X132082380Y-68392380D01*
X132463333Y-68392380D02*
X132415714Y-68297142D01*
X132415714Y-68106666D01*
X132463333Y-68011428D01*
X132510952Y-67963809D01*
X132606190Y-67916190D01*
X132891904Y-67916190D01*
X132987142Y-67963809D01*
X133034761Y-68011428D01*
X133082380Y-68106666D01*
X133082380Y-68297142D01*
X133034761Y-68392380D01*
X133082380Y-66963809D02*
X133082380Y-67535238D01*
X133082380Y-67249523D02*
X132082380Y-67249523D01*
X132225238Y-67344761D01*
X132320476Y-67440000D01*
X132368095Y-67535238D01*
%TO.C,Jout1*%
X124602380Y-71183809D02*
X125316666Y-71183809D01*
X125459523Y-71231428D01*
X125554761Y-71326666D01*
X125602380Y-71469523D01*
X125602380Y-71564761D01*
X125602380Y-70564761D02*
X125554761Y-70660000D01*
X125507142Y-70707619D01*
X125411904Y-70755238D01*
X125126190Y-70755238D01*
X125030952Y-70707619D01*
X124983333Y-70660000D01*
X124935714Y-70564761D01*
X124935714Y-70421904D01*
X124983333Y-70326666D01*
X125030952Y-70279047D01*
X125126190Y-70231428D01*
X125411904Y-70231428D01*
X125507142Y-70279047D01*
X125554761Y-70326666D01*
X125602380Y-70421904D01*
X125602380Y-70564761D01*
X124935714Y-69374285D02*
X125602380Y-69374285D01*
X124935714Y-69802857D02*
X125459523Y-69802857D01*
X125554761Y-69755238D01*
X125602380Y-69660000D01*
X125602380Y-69517142D01*
X125554761Y-69421904D01*
X125507142Y-69374285D01*
X124935714Y-69040952D02*
X124935714Y-68660000D01*
X124602380Y-68898095D02*
X125459523Y-68898095D01*
X125554761Y-68850476D01*
X125602380Y-68755238D01*
X125602380Y-68660000D01*
X125602380Y-67802857D02*
X125602380Y-68374285D01*
X125602380Y-68088571D02*
X124602380Y-68088571D01*
X124745238Y-68183809D01*
X124840476Y-68279047D01*
X124888095Y-68374285D01*
%TO.C,Don1*%
X134747142Y-61162380D02*
X134747142Y-60162380D01*
X134985238Y-60162380D01*
X135128095Y-60210000D01*
X135223333Y-60305238D01*
X135270952Y-60400476D01*
X135318571Y-60590952D01*
X135318571Y-60733809D01*
X135270952Y-60924285D01*
X135223333Y-61019523D01*
X135128095Y-61114761D01*
X134985238Y-61162380D01*
X134747142Y-61162380D01*
X135890000Y-61162380D02*
X135794761Y-61114761D01*
X135747142Y-61067142D01*
X135699523Y-60971904D01*
X135699523Y-60686190D01*
X135747142Y-60590952D01*
X135794761Y-60543333D01*
X135890000Y-60495714D01*
X136032857Y-60495714D01*
X136128095Y-60543333D01*
X136175714Y-60590952D01*
X136223333Y-60686190D01*
X136223333Y-60971904D01*
X136175714Y-61067142D01*
X136128095Y-61114761D01*
X136032857Y-61162380D01*
X135890000Y-61162380D01*
X136651904Y-60495714D02*
X136651904Y-61162380D01*
X136651904Y-60590952D02*
X136699523Y-60543333D01*
X136794761Y-60495714D01*
X136937619Y-60495714D01*
X137032857Y-60543333D01*
X137080476Y-60638571D01*
X137080476Y-61162380D01*
X138080476Y-61162380D02*
X137509047Y-61162380D01*
X137794761Y-61162380D02*
X137794761Y-60162380D01*
X137699523Y-60305238D01*
X137604285Y-60400476D01*
X137509047Y-60448095D01*
%TO.C,Css1*%
X139343809Y-77627142D02*
X139296190Y-77674761D01*
X139153333Y-77722380D01*
X139058095Y-77722380D01*
X138915238Y-77674761D01*
X138820000Y-77579523D01*
X138772380Y-77484285D01*
X138724761Y-77293809D01*
X138724761Y-77150952D01*
X138772380Y-76960476D01*
X138820000Y-76865238D01*
X138915238Y-76770000D01*
X139058095Y-76722380D01*
X139153333Y-76722380D01*
X139296190Y-76770000D01*
X139343809Y-76817619D01*
X139724761Y-77674761D02*
X139820000Y-77722380D01*
X140010476Y-77722380D01*
X140105714Y-77674761D01*
X140153333Y-77579523D01*
X140153333Y-77531904D01*
X140105714Y-77436666D01*
X140010476Y-77389047D01*
X139867619Y-77389047D01*
X139772380Y-77341428D01*
X139724761Y-77246190D01*
X139724761Y-77198571D01*
X139772380Y-77103333D01*
X139867619Y-77055714D01*
X140010476Y-77055714D01*
X140105714Y-77103333D01*
X140534285Y-77674761D02*
X140629523Y-77722380D01*
X140820000Y-77722380D01*
X140915238Y-77674761D01*
X140962857Y-77579523D01*
X140962857Y-77531904D01*
X140915238Y-77436666D01*
X140820000Y-77389047D01*
X140677142Y-77389047D01*
X140581904Y-77341428D01*
X140534285Y-77246190D01*
X140534285Y-77198571D01*
X140581904Y-77103333D01*
X140677142Y-77055714D01*
X140820000Y-77055714D01*
X140915238Y-77103333D01*
X141915238Y-77722380D02*
X141343809Y-77722380D01*
X141629523Y-77722380D02*
X141629523Y-76722380D01*
X141534285Y-76865238D01*
X141439047Y-76960476D01*
X141343809Y-77008095D01*
%TO.C,Cout1*%
X139562857Y-65797142D02*
X139515238Y-65844761D01*
X139372380Y-65892380D01*
X139277142Y-65892380D01*
X139134285Y-65844761D01*
X139039047Y-65749523D01*
X138991428Y-65654285D01*
X138943809Y-65463809D01*
X138943809Y-65320952D01*
X138991428Y-65130476D01*
X139039047Y-65035238D01*
X139134285Y-64940000D01*
X139277142Y-64892380D01*
X139372380Y-64892380D01*
X139515238Y-64940000D01*
X139562857Y-64987619D01*
X140134285Y-65892380D02*
X140039047Y-65844761D01*
X139991428Y-65797142D01*
X139943809Y-65701904D01*
X139943809Y-65416190D01*
X139991428Y-65320952D01*
X140039047Y-65273333D01*
X140134285Y-65225714D01*
X140277142Y-65225714D01*
X140372380Y-65273333D01*
X140420000Y-65320952D01*
X140467619Y-65416190D01*
X140467619Y-65701904D01*
X140420000Y-65797142D01*
X140372380Y-65844761D01*
X140277142Y-65892380D01*
X140134285Y-65892380D01*
X141324761Y-65225714D02*
X141324761Y-65892380D01*
X140896190Y-65225714D02*
X140896190Y-65749523D01*
X140943809Y-65844761D01*
X141039047Y-65892380D01*
X141181904Y-65892380D01*
X141277142Y-65844761D01*
X141324761Y-65797142D01*
X141658095Y-65225714D02*
X142039047Y-65225714D01*
X141800952Y-64892380D02*
X141800952Y-65749523D01*
X141848571Y-65844761D01*
X141943809Y-65892380D01*
X142039047Y-65892380D01*
X142896190Y-65892380D02*
X142324761Y-65892380D01*
X142610476Y-65892380D02*
X142610476Y-64892380D01*
X142515238Y-65035238D01*
X142420000Y-65130476D01*
X142324761Y-65178095D01*
%TO.C,Cin1*%
X144457142Y-72337142D02*
X144504761Y-72384761D01*
X144552380Y-72527619D01*
X144552380Y-72622857D01*
X144504761Y-72765714D01*
X144409523Y-72860952D01*
X144314285Y-72908571D01*
X144123809Y-72956190D01*
X143980952Y-72956190D01*
X143790476Y-72908571D01*
X143695238Y-72860952D01*
X143600000Y-72765714D01*
X143552380Y-72622857D01*
X143552380Y-72527619D01*
X143600000Y-72384761D01*
X143647619Y-72337142D01*
X144552380Y-71908571D02*
X143885714Y-71908571D01*
X143552380Y-71908571D02*
X143600000Y-71956190D01*
X143647619Y-71908571D01*
X143600000Y-71860952D01*
X143552380Y-71908571D01*
X143647619Y-71908571D01*
X143885714Y-71432380D02*
X144552380Y-71432380D01*
X143980952Y-71432380D02*
X143933333Y-71384761D01*
X143885714Y-71289523D01*
X143885714Y-71146666D01*
X143933333Y-71051428D01*
X144028571Y-71003809D01*
X144552380Y-71003809D01*
X144552380Y-70003809D02*
X144552380Y-70575238D01*
X144552380Y-70289523D02*
X143552380Y-70289523D01*
X143695238Y-70384761D01*
X143790476Y-70480000D01*
X143838095Y-70575238D01*
%TD*%
M02*
