%TF.GenerationSoftware,KiCad,Pcbnew,(5.1.6)-1*%
%TF.CreationDate,2021-03-22T01:22:11+02:00*%
%TF.ProjectId,Yu_9V_charger,59755f39-565f-4636-9861-726765722e6b,rev?*%
%TF.SameCoordinates,Original*%
%TF.FileFunction,Copper,L1,Top*%
%TF.FilePolarity,Positive*%
%FSLAX46Y46*%
G04 Gerber Fmt 4.6, Leading zero omitted, Abs format (unit mm)*
G04 Created by KiCad (PCBNEW (5.1.6)-1) date 2021-03-22 01:22:11*
%MOMM*%
%LPD*%
G01*
G04 APERTURE LIST*
%TA.AperFunction,SMDPad,CuDef*%
%ADD10R,1.000000X0.800000*%
%TD*%
%TA.AperFunction,SMDPad,CuDef*%
%ADD11R,0.700000X1.500000*%
%TD*%
%TA.AperFunction,ViaPad*%
%ADD12C,0.300000*%
%TD*%
%TA.AperFunction,Conductor*%
%ADD13R,1.200000X2.000000*%
%TD*%
%TA.AperFunction,Conductor*%
%ADD14R,0.600000X0.500000*%
%TD*%
%TA.AperFunction,ComponentPad*%
%ADD15C,1.600000*%
%TD*%
%TA.AperFunction,ComponentPad*%
%ADD16R,1.500000X1.600000*%
%TD*%
%TA.AperFunction,ComponentPad*%
%ADD17C,3.000000*%
%TD*%
%TA.AperFunction,ViaPad*%
%ADD18C,2.000000*%
%TD*%
%TA.AperFunction,Conductor*%
%ADD19C,0.250000*%
%TD*%
%TA.AperFunction,Conductor*%
%ADD20C,0.254000*%
%TD*%
G04 APERTURE END LIST*
D10*
%TO.P,SWin1,*%
%TO.N,*%
X157210000Y-62880000D03*
X149910000Y-62880000D03*
X149910000Y-60670000D03*
X157210000Y-60670000D03*
D11*
%TO.P,SWin1,3*%
%TO.N,+9V*%
X151310000Y-63530000D03*
%TO.P,SWin1,2*%
%TO.N,-BATT*%
X152810000Y-63530000D03*
%TO.P,SWin1,1*%
%TO.N,Net-(SWin1-Pad1)*%
X155810000Y-63530000D03*
%TD*%
D12*
%TO.N,GND*%
%TO.C,U1*%
X140200000Y-70760000D03*
X140200000Y-71510000D03*
X140200000Y-72260000D03*
D13*
X140200000Y-71510000D03*
D14*
%TO.N,Net-(Css1-Pad1)*%
X139150000Y-72485000D03*
%TO.N,Net-(Rpg1-Pad2)*%
X139150000Y-71835000D03*
%TO.N,/REF*%
X139150000Y-71185000D03*
%TO.N,+5V*%
X139150000Y-70535000D03*
X141250000Y-70535000D03*
%TO.N,GND*%
X141250000Y-71185000D03*
%TO.N,+9V*%
X141250000Y-71835000D03*
X141250000Y-72485000D03*
%TD*%
%TO.P,Rpg1,2*%
%TO.N,Net-(Rpg1-Pad2)*%
%TA.AperFunction,SMDPad,CuDef*%
G36*
G01*
X137335000Y-73105000D02*
X136085000Y-73105000D01*
G75*
G02*
X135835000Y-72855000I0J250000D01*
G01*
X135835000Y-72105000D01*
G75*
G02*
X136085000Y-71855000I250000J0D01*
G01*
X137335000Y-71855000D01*
G75*
G02*
X137585000Y-72105000I0J-250000D01*
G01*
X137585000Y-72855000D01*
G75*
G02*
X137335000Y-73105000I-250000J0D01*
G01*
G37*
%TD.AperFunction*%
%TO.P,Rpg1,1*%
%TO.N,+5V*%
%TA.AperFunction,SMDPad,CuDef*%
G36*
G01*
X137335000Y-75905000D02*
X136085000Y-75905000D01*
G75*
G02*
X135835000Y-75655000I0J250000D01*
G01*
X135835000Y-74905000D01*
G75*
G02*
X136085000Y-74655000I250000J0D01*
G01*
X137335000Y-74655000D01*
G75*
G02*
X137585000Y-74905000I0J-250000D01*
G01*
X137585000Y-75655000D01*
G75*
G02*
X137335000Y-75905000I-250000J0D01*
G01*
G37*
%TD.AperFunction*%
%TD*%
%TO.P,Rled1,2*%
%TO.N,Net-(Don1-Pad2)*%
%TA.AperFunction,SMDPad,CuDef*%
G36*
G01*
X141945000Y-61945000D02*
X141945000Y-63195000D01*
G75*
G02*
X141695000Y-63445000I-250000J0D01*
G01*
X140945000Y-63445000D01*
G75*
G02*
X140695000Y-63195000I0J250000D01*
G01*
X140695000Y-61945000D01*
G75*
G02*
X140945000Y-61695000I250000J0D01*
G01*
X141695000Y-61695000D01*
G75*
G02*
X141945000Y-61945000I0J-250000D01*
G01*
G37*
%TD.AperFunction*%
%TO.P,Rled1,1*%
%TO.N,+9V*%
%TA.AperFunction,SMDPad,CuDef*%
G36*
G01*
X144745000Y-61945000D02*
X144745000Y-63195000D01*
G75*
G02*
X144495000Y-63445000I-250000J0D01*
G01*
X143745000Y-63445000D01*
G75*
G02*
X143495000Y-63195000I0J250000D01*
G01*
X143495000Y-61945000D01*
G75*
G02*
X143745000Y-61695000I250000J0D01*
G01*
X144495000Y-61695000D01*
G75*
G02*
X144745000Y-61945000I0J-250000D01*
G01*
G37*
%TD.AperFunction*%
%TD*%
%TO.P,Rfbt1,2*%
%TO.N,/REF*%
%TA.AperFunction,SMDPad,CuDef*%
G36*
G01*
X128885000Y-69725000D02*
X130135000Y-69725000D01*
G75*
G02*
X130385000Y-69975000I0J-250000D01*
G01*
X130385000Y-70725000D01*
G75*
G02*
X130135000Y-70975000I-250000J0D01*
G01*
X128885000Y-70975000D01*
G75*
G02*
X128635000Y-70725000I0J250000D01*
G01*
X128635000Y-69975000D01*
G75*
G02*
X128885000Y-69725000I250000J0D01*
G01*
G37*
%TD.AperFunction*%
%TO.P,Rfbt1,1*%
%TO.N,+5V*%
%TA.AperFunction,SMDPad,CuDef*%
G36*
G01*
X128885000Y-66925000D02*
X130135000Y-66925000D01*
G75*
G02*
X130385000Y-67175000I0J-250000D01*
G01*
X130385000Y-67925000D01*
G75*
G02*
X130135000Y-68175000I-250000J0D01*
G01*
X128885000Y-68175000D01*
G75*
G02*
X128635000Y-67925000I0J250000D01*
G01*
X128635000Y-67175000D01*
G75*
G02*
X128885000Y-66925000I250000J0D01*
G01*
G37*
%TD.AperFunction*%
%TD*%
%TO.P,Rfbb1,2*%
%TO.N,GND*%
%TA.AperFunction,SMDPad,CuDef*%
G36*
G01*
X135075000Y-68165000D02*
X133825000Y-68165000D01*
G75*
G02*
X133575000Y-67915000I0J250000D01*
G01*
X133575000Y-67165000D01*
G75*
G02*
X133825000Y-66915000I250000J0D01*
G01*
X135075000Y-66915000D01*
G75*
G02*
X135325000Y-67165000I0J-250000D01*
G01*
X135325000Y-67915000D01*
G75*
G02*
X135075000Y-68165000I-250000J0D01*
G01*
G37*
%TD.AperFunction*%
%TO.P,Rfbb1,1*%
%TO.N,/REF*%
%TA.AperFunction,SMDPad,CuDef*%
G36*
G01*
X135075000Y-70965000D02*
X133825000Y-70965000D01*
G75*
G02*
X133575000Y-70715000I0J250000D01*
G01*
X133575000Y-69965000D01*
G75*
G02*
X133825000Y-69715000I250000J0D01*
G01*
X135075000Y-69715000D01*
G75*
G02*
X135325000Y-69965000I0J-250000D01*
G01*
X135325000Y-70715000D01*
G75*
G02*
X135075000Y-70965000I-250000J0D01*
G01*
G37*
%TD.AperFunction*%
%TD*%
D15*
%TO.P,Jout1,4*%
%TO.N,GND*%
X121960000Y-73160000D03*
%TO.P,Jout1,3*%
%TO.N,Net-(Jout1-Pad3)*%
X121960000Y-70660000D03*
%TO.P,Jout1,2*%
%TO.N,Net-(Jout1-Pad2)*%
X121960000Y-68660000D03*
D16*
%TO.P,Jout1,1*%
%TO.N,+5V*%
X121960000Y-66160000D03*
D17*
%TO.P,Jout1,5*%
%TO.N,GND*%
X119250000Y-76230000D03*
X119250000Y-63090000D03*
%TD*%
%TO.P,Don1,2*%
%TO.N,Net-(Don1-Pad2)*%
%TA.AperFunction,SMDPad,CuDef*%
G36*
G01*
X137165000Y-63155000D02*
X137165000Y-61905000D01*
G75*
G02*
X137415000Y-61655000I250000J0D01*
G01*
X138165000Y-61655000D01*
G75*
G02*
X138415000Y-61905000I0J-250000D01*
G01*
X138415000Y-63155000D01*
G75*
G02*
X138165000Y-63405000I-250000J0D01*
G01*
X137415000Y-63405000D01*
G75*
G02*
X137165000Y-63155000I0J250000D01*
G01*
G37*
%TD.AperFunction*%
%TO.P,Don1,1*%
%TO.N,GND*%
%TA.AperFunction,SMDPad,CuDef*%
G36*
G01*
X134365000Y-63155000D02*
X134365000Y-61905000D01*
G75*
G02*
X134615000Y-61655000I250000J0D01*
G01*
X135365000Y-61655000D01*
G75*
G02*
X135615000Y-61905000I0J-250000D01*
G01*
X135615000Y-63155000D01*
G75*
G02*
X135365000Y-63405000I-250000J0D01*
G01*
X134615000Y-63405000D01*
G75*
G02*
X134365000Y-63155000I0J250000D01*
G01*
G37*
%TD.AperFunction*%
%TD*%
%TO.P,Css1,2*%
%TO.N,GND*%
%TA.AperFunction,SMDPad,CuDef*%
G36*
G01*
X139545000Y-74825000D02*
X139545000Y-76075000D01*
G75*
G02*
X139295000Y-76325000I-250000J0D01*
G01*
X138545000Y-76325000D01*
G75*
G02*
X138295000Y-76075000I0J250000D01*
G01*
X138295000Y-74825000D01*
G75*
G02*
X138545000Y-74575000I250000J0D01*
G01*
X139295000Y-74575000D01*
G75*
G02*
X139545000Y-74825000I0J-250000D01*
G01*
G37*
%TD.AperFunction*%
%TO.P,Css1,1*%
%TO.N,Net-(Css1-Pad1)*%
%TA.AperFunction,SMDPad,CuDef*%
G36*
G01*
X142345000Y-74825000D02*
X142345000Y-76075000D01*
G75*
G02*
X142095000Y-76325000I-250000J0D01*
G01*
X141345000Y-76325000D01*
G75*
G02*
X141095000Y-76075000I0J250000D01*
G01*
X141095000Y-74825000D01*
G75*
G02*
X141345000Y-74575000I250000J0D01*
G01*
X142095000Y-74575000D01*
G75*
G02*
X142345000Y-74825000I0J-250000D01*
G01*
G37*
%TD.AperFunction*%
%TD*%
%TO.P,Cout1,2*%
%TO.N,GND*%
%TA.AperFunction,SMDPad,CuDef*%
G36*
G01*
X141695000Y-67885000D02*
X141695000Y-66635000D01*
G75*
G02*
X141945000Y-66385000I250000J0D01*
G01*
X142695000Y-66385000D01*
G75*
G02*
X142945000Y-66635000I0J-250000D01*
G01*
X142945000Y-67885000D01*
G75*
G02*
X142695000Y-68135000I-250000J0D01*
G01*
X141945000Y-68135000D01*
G75*
G02*
X141695000Y-67885000I0J250000D01*
G01*
G37*
%TD.AperFunction*%
%TO.P,Cout1,1*%
%TO.N,+5V*%
%TA.AperFunction,SMDPad,CuDef*%
G36*
G01*
X138895000Y-67885000D02*
X138895000Y-66635000D01*
G75*
G02*
X139145000Y-66385000I250000J0D01*
G01*
X139895000Y-66385000D01*
G75*
G02*
X140145000Y-66635000I0J-250000D01*
G01*
X140145000Y-67885000D01*
G75*
G02*
X139895000Y-68135000I-250000J0D01*
G01*
X139145000Y-68135000D01*
G75*
G02*
X138895000Y-67885000I0J250000D01*
G01*
G37*
%TD.AperFunction*%
%TD*%
%TO.P,Cin1,2*%
%TO.N,GND*%
%TA.AperFunction,SMDPad,CuDef*%
G36*
G01*
X146545000Y-70705000D02*
X145295000Y-70705000D01*
G75*
G02*
X145045000Y-70455000I0J250000D01*
G01*
X145045000Y-69705000D01*
G75*
G02*
X145295000Y-69455000I250000J0D01*
G01*
X146545000Y-69455000D01*
G75*
G02*
X146795000Y-69705000I0J-250000D01*
G01*
X146795000Y-70455000D01*
G75*
G02*
X146545000Y-70705000I-250000J0D01*
G01*
G37*
%TD.AperFunction*%
%TO.P,Cin1,1*%
%TO.N,+9V*%
%TA.AperFunction,SMDPad,CuDef*%
G36*
G01*
X146545000Y-73505000D02*
X145295000Y-73505000D01*
G75*
G02*
X145045000Y-73255000I0J250000D01*
G01*
X145045000Y-72505000D01*
G75*
G02*
X145295000Y-72255000I250000J0D01*
G01*
X146545000Y-72255000D01*
G75*
G02*
X146795000Y-72505000I0J-250000D01*
G01*
X146795000Y-73255000D01*
G75*
G02*
X146545000Y-73505000I-250000J0D01*
G01*
G37*
%TD.AperFunction*%
%TD*%
D18*
%TO.N,GND*%
X137090000Y-69770000D03*
X143280000Y-70190000D03*
%TO.N,-BATT*%
X156430000Y-70390000D03*
X153580000Y-70390000D03*
X150630000Y-70400000D03*
%TD*%
D19*
%TO.N,GND*%
X142320000Y-67260000D02*
X143100000Y-67260000D01*
X141250000Y-71160000D02*
X141299999Y-71110001D01*
X141250000Y-71185000D02*
X141250000Y-71160000D01*
X134450000Y-67540000D02*
X136660000Y-65330000D01*
X140390000Y-65330000D02*
X142320000Y-67260000D01*
X136660000Y-65330000D02*
X140390000Y-65330000D01*
X140525000Y-71185000D02*
X140200000Y-71510000D01*
X141250000Y-71185000D02*
X140525000Y-71185000D01*
X119260000Y-63100000D02*
X119250000Y-63090000D01*
X119250000Y-75870000D02*
X119250000Y-76230000D01*
%TO.N,+9V*%
X141250000Y-71835000D02*
X141250000Y-72485000D01*
X145525000Y-72485000D02*
X145920000Y-72880000D01*
X141250000Y-72485000D02*
X145525000Y-72485000D01*
X145920000Y-72880000D02*
X146795000Y-72880000D01*
X148060000Y-66780000D02*
X148060000Y-70740000D01*
X148060000Y-70740000D02*
X145920000Y-72880000D01*
X144120000Y-62570000D02*
X144210000Y-62570000D01*
X145860000Y-64220000D02*
X150620000Y-64220000D01*
X144210000Y-62570000D02*
X145860000Y-64220000D01*
X151310000Y-63530000D02*
X150620000Y-64220000D01*
X150620000Y-64220000D02*
X148060000Y-66780000D01*
%TO.N,+5V*%
X141060001Y-70184999D02*
X139339999Y-70184999D01*
X139339999Y-70184999D02*
X139150000Y-70374998D01*
X141250000Y-70374998D02*
X141060001Y-70184999D01*
X139150000Y-70374998D02*
X139150000Y-70535000D01*
X141250000Y-70535000D02*
X141250000Y-70374998D01*
X139150000Y-67630000D02*
X139520000Y-67260000D01*
X139150000Y-70535000D02*
X139150000Y-67630000D01*
X132626810Y-75280000D02*
X136710000Y-75280000D01*
X128309990Y-67875010D02*
X128309990Y-70963180D01*
X128635000Y-67550000D02*
X128309990Y-67875010D01*
X128309990Y-70963180D02*
X132626810Y-75280000D01*
X129510000Y-67550000D02*
X128635000Y-67550000D01*
X121970000Y-66150000D02*
X121960000Y-66160000D01*
X138289990Y-68490010D02*
X130450010Y-68490010D01*
X139520000Y-67260000D02*
X138289990Y-68490010D01*
X130450010Y-68490010D02*
X129510000Y-67550000D01*
X128120000Y-66160000D02*
X121960000Y-66160000D01*
X129510000Y-67550000D02*
X128120000Y-66160000D01*
%TO.N,Net-(Css1-Pad1)*%
X141615000Y-75450000D02*
X141720000Y-75450000D01*
X139150000Y-72985000D02*
X141615000Y-75450000D01*
X139150000Y-72485000D02*
X139150000Y-72985000D01*
%TO.N,Net-(Don1-Pad2)*%
X137830000Y-62570000D02*
X137790000Y-62530000D01*
X141320000Y-62570000D02*
X137830000Y-62570000D01*
%TO.N,Net-(Rpg1-Pad2)*%
X137355000Y-71835000D02*
X139150000Y-71835000D01*
X136710000Y-72480000D02*
X137355000Y-71835000D01*
%TO.N,-BATT*%
X153560000Y-70370000D02*
X153580000Y-70390000D01*
X156430000Y-70390000D02*
X153580000Y-70390000D01*
X150640000Y-70390000D02*
X150630000Y-70400000D01*
X153580000Y-70390000D02*
X150640000Y-70390000D01*
X153580000Y-64300000D02*
X152810000Y-63530000D01*
X153580000Y-70390000D02*
X153580000Y-64300000D01*
%TO.N,/REF*%
X134440000Y-70350000D02*
X134450000Y-70340000D01*
X129510000Y-70350000D02*
X134440000Y-70350000D01*
X135295000Y-71185000D02*
X139150000Y-71185000D01*
X134450000Y-70340000D02*
X135295000Y-71185000D01*
%TD*%
D20*
%TO.N,GND*%
G36*
X148097193Y-61455827D02*
G01*
X148099333Y-61480631D01*
X148106271Y-61504541D01*
X148117740Y-61526638D01*
X148133300Y-61546074D01*
X148152352Y-61562100D01*
X148174165Y-61574101D01*
X148197900Y-61581616D01*
X148224184Y-61584366D01*
X149035802Y-61584366D01*
X149055506Y-61600537D01*
X149165820Y-61659502D01*
X149285518Y-61695812D01*
X149401109Y-61707196D01*
X149557693Y-61788769D01*
X149613148Y-61811081D01*
X149668366Y-61834199D01*
X149677192Y-61836849D01*
X149694541Y-61841928D01*
X149410000Y-61841928D01*
X149285518Y-61854188D01*
X149165820Y-61890498D01*
X149055506Y-61949463D01*
X148958815Y-62028815D01*
X148879463Y-62125506D01*
X148820498Y-62235820D01*
X148784188Y-62355518D01*
X148771928Y-62480000D01*
X148771928Y-63280000D01*
X148784188Y-63404482D01*
X148801029Y-63460000D01*
X146174803Y-63460000D01*
X145383072Y-62668270D01*
X145383072Y-61945000D01*
X145366008Y-61771746D01*
X145315472Y-61605150D01*
X145233405Y-61451614D01*
X145122962Y-61317038D01*
X144988386Y-61206595D01*
X144834850Y-61124528D01*
X144668254Y-61073992D01*
X144495000Y-61056928D01*
X143745000Y-61056928D01*
X143571746Y-61073992D01*
X143405150Y-61124528D01*
X143251614Y-61206595D01*
X143117038Y-61317038D01*
X143006595Y-61451614D01*
X142924528Y-61605150D01*
X142873992Y-61771746D01*
X142856928Y-61945000D01*
X142856928Y-63195000D01*
X142873992Y-63368254D01*
X142924528Y-63534850D01*
X143006595Y-63688386D01*
X143117038Y-63822962D01*
X143251614Y-63933405D01*
X143405150Y-64015472D01*
X143571746Y-64066008D01*
X143745000Y-64083072D01*
X144495000Y-64083072D01*
X144634528Y-64069330D01*
X145296205Y-64731008D01*
X145319999Y-64760001D01*
X145348992Y-64783795D01*
X145348996Y-64783799D01*
X145381577Y-64810537D01*
X145435724Y-64854974D01*
X145567753Y-64925546D01*
X145711014Y-64969003D01*
X145822667Y-64980000D01*
X145822676Y-64980000D01*
X145859999Y-64983676D01*
X145897322Y-64980000D01*
X148785199Y-64980000D01*
X147549003Y-66216196D01*
X147519999Y-66239999D01*
X147481486Y-66286928D01*
X147425026Y-66355724D01*
X147378779Y-66442246D01*
X147354454Y-66487754D01*
X147310997Y-66631015D01*
X147300000Y-66742668D01*
X147300000Y-66742678D01*
X147296324Y-66780000D01*
X147300000Y-66817323D01*
X147300001Y-69069390D01*
X147246185Y-69003815D01*
X147149494Y-68924463D01*
X147039180Y-68865498D01*
X146919482Y-68829188D01*
X146795000Y-68816928D01*
X146205750Y-68820000D01*
X146047000Y-68978750D01*
X146047000Y-69953000D01*
X146067000Y-69953000D01*
X146067000Y-70207000D01*
X146047000Y-70207000D01*
X146047000Y-71181250D01*
X146205750Y-71340000D01*
X146384268Y-71340931D01*
X146108271Y-71616928D01*
X145295000Y-71616928D01*
X145121746Y-71633992D01*
X144955150Y-71684528D01*
X144879432Y-71725000D01*
X142188072Y-71725000D01*
X142188072Y-71585000D01*
X142180367Y-71506766D01*
X142185000Y-71466750D01*
X142174525Y-71456275D01*
X142139502Y-71340820D01*
X142080537Y-71230506D01*
X142043191Y-71185000D01*
X142080537Y-71139494D01*
X142139502Y-71029180D01*
X142174525Y-70913725D01*
X142185000Y-70903250D01*
X142180367Y-70863234D01*
X142188072Y-70785000D01*
X142188072Y-70705000D01*
X144406928Y-70705000D01*
X144419188Y-70829482D01*
X144455498Y-70949180D01*
X144514463Y-71059494D01*
X144593815Y-71156185D01*
X144690506Y-71235537D01*
X144800820Y-71294502D01*
X144920518Y-71330812D01*
X145045000Y-71343072D01*
X145634250Y-71340000D01*
X145793000Y-71181250D01*
X145793000Y-70207000D01*
X144568750Y-70207000D01*
X144410000Y-70365750D01*
X144406928Y-70705000D01*
X142188072Y-70705000D01*
X142188072Y-70285000D01*
X142175812Y-70160518D01*
X142139502Y-70040820D01*
X142080537Y-69930506D01*
X142001185Y-69833815D01*
X141904494Y-69754463D01*
X141794180Y-69695498D01*
X141674482Y-69659188D01*
X141606122Y-69652455D01*
X141600002Y-69644998D01*
X141484277Y-69550025D01*
X141352248Y-69479453D01*
X141271636Y-69455000D01*
X144406928Y-69455000D01*
X144410000Y-69794250D01*
X144568750Y-69953000D01*
X145793000Y-69953000D01*
X145793000Y-68978750D01*
X145634250Y-68820000D01*
X145045000Y-68816928D01*
X144920518Y-68829188D01*
X144800820Y-68865498D01*
X144690506Y-68924463D01*
X144593815Y-69003815D01*
X144514463Y-69100506D01*
X144455498Y-69210820D01*
X144419188Y-69330518D01*
X144406928Y-69455000D01*
X141271636Y-69455000D01*
X141208987Y-69435996D01*
X141097334Y-69424999D01*
X141097323Y-69424999D01*
X141060001Y-69421323D01*
X141022679Y-69424999D01*
X139910000Y-69424999D01*
X139910000Y-68771595D01*
X140068254Y-68756008D01*
X140234850Y-68705472D01*
X140388386Y-68623405D01*
X140522962Y-68512962D01*
X140633405Y-68378386D01*
X140715472Y-68224850D01*
X140742727Y-68135000D01*
X141056928Y-68135000D01*
X141069188Y-68259482D01*
X141105498Y-68379180D01*
X141164463Y-68489494D01*
X141243815Y-68586185D01*
X141340506Y-68665537D01*
X141450820Y-68724502D01*
X141570518Y-68760812D01*
X141695000Y-68773072D01*
X142034250Y-68770000D01*
X142193000Y-68611250D01*
X142193000Y-67387000D01*
X142447000Y-67387000D01*
X142447000Y-68611250D01*
X142605750Y-68770000D01*
X142945000Y-68773072D01*
X143069482Y-68760812D01*
X143189180Y-68724502D01*
X143299494Y-68665537D01*
X143396185Y-68586185D01*
X143475537Y-68489494D01*
X143534502Y-68379180D01*
X143570812Y-68259482D01*
X143583072Y-68135000D01*
X143580000Y-67545750D01*
X143421250Y-67387000D01*
X142447000Y-67387000D01*
X142193000Y-67387000D01*
X141218750Y-67387000D01*
X141060000Y-67545750D01*
X141056928Y-68135000D01*
X140742727Y-68135000D01*
X140766008Y-68058254D01*
X140783072Y-67885000D01*
X140783072Y-66635000D01*
X140766008Y-66461746D01*
X140742728Y-66385000D01*
X141056928Y-66385000D01*
X141060000Y-66974250D01*
X141218750Y-67133000D01*
X142193000Y-67133000D01*
X142193000Y-65908750D01*
X142447000Y-65908750D01*
X142447000Y-67133000D01*
X143421250Y-67133000D01*
X143580000Y-66974250D01*
X143583072Y-66385000D01*
X143570812Y-66260518D01*
X143534502Y-66140820D01*
X143475537Y-66030506D01*
X143396185Y-65933815D01*
X143299494Y-65854463D01*
X143189180Y-65795498D01*
X143069482Y-65759188D01*
X142945000Y-65746928D01*
X142605750Y-65750000D01*
X142447000Y-65908750D01*
X142193000Y-65908750D01*
X142034250Y-65750000D01*
X141695000Y-65746928D01*
X141570518Y-65759188D01*
X141450820Y-65795498D01*
X141340506Y-65854463D01*
X141243815Y-65933815D01*
X141164463Y-66030506D01*
X141105498Y-66140820D01*
X141069188Y-66260518D01*
X141056928Y-66385000D01*
X140742728Y-66385000D01*
X140715472Y-66295150D01*
X140633405Y-66141614D01*
X140522962Y-66007038D01*
X140388386Y-65896595D01*
X140234850Y-65814528D01*
X140068254Y-65763992D01*
X139895000Y-65746928D01*
X139145000Y-65746928D01*
X138971746Y-65763992D01*
X138805150Y-65814528D01*
X138651614Y-65896595D01*
X138517038Y-66007038D01*
X138406595Y-66141614D01*
X138324528Y-66295150D01*
X138273992Y-66461746D01*
X138256928Y-66635000D01*
X138256928Y-67448271D01*
X137975189Y-67730010D01*
X135864260Y-67730010D01*
X135801250Y-67667000D01*
X134577000Y-67667000D01*
X134577000Y-67687000D01*
X134323000Y-67687000D01*
X134323000Y-67667000D01*
X133098750Y-67667000D01*
X133035740Y-67730010D01*
X131023072Y-67730010D01*
X131023072Y-67175000D01*
X131006008Y-67001746D01*
X130979695Y-66915000D01*
X132936928Y-66915000D01*
X132940000Y-67254250D01*
X133098750Y-67413000D01*
X134323000Y-67413000D01*
X134323000Y-66438750D01*
X134577000Y-66438750D01*
X134577000Y-67413000D01*
X135801250Y-67413000D01*
X135960000Y-67254250D01*
X135963072Y-66915000D01*
X135950812Y-66790518D01*
X135914502Y-66670820D01*
X135855537Y-66560506D01*
X135776185Y-66463815D01*
X135679494Y-66384463D01*
X135569180Y-66325498D01*
X135449482Y-66289188D01*
X135325000Y-66276928D01*
X134735750Y-66280000D01*
X134577000Y-66438750D01*
X134323000Y-66438750D01*
X134164250Y-66280000D01*
X133575000Y-66276928D01*
X133450518Y-66289188D01*
X133330820Y-66325498D01*
X133220506Y-66384463D01*
X133123815Y-66463815D01*
X133044463Y-66560506D01*
X132985498Y-66670820D01*
X132949188Y-66790518D01*
X132936928Y-66915000D01*
X130979695Y-66915000D01*
X130955472Y-66835150D01*
X130873405Y-66681614D01*
X130762962Y-66547038D01*
X130628386Y-66436595D01*
X130474850Y-66354528D01*
X130308254Y-66303992D01*
X130135000Y-66286928D01*
X129321729Y-66286928D01*
X128683804Y-65649003D01*
X128660001Y-65619999D01*
X128544276Y-65525026D01*
X128412247Y-65454454D01*
X128268986Y-65410997D01*
X128157333Y-65400000D01*
X128157322Y-65400000D01*
X128120000Y-65396324D01*
X128082678Y-65400000D01*
X123348072Y-65400000D01*
X123348072Y-65360000D01*
X123335812Y-65235518D01*
X123299502Y-65115820D01*
X123240537Y-65005506D01*
X123161185Y-64908815D01*
X123064494Y-64829463D01*
X122954180Y-64770498D01*
X122834482Y-64734188D01*
X122710000Y-64721928D01*
X121210000Y-64721928D01*
X121085518Y-64734188D01*
X120965820Y-64770498D01*
X120855506Y-64829463D01*
X120758815Y-64908815D01*
X120679463Y-65005506D01*
X120620498Y-65115820D01*
X120584188Y-65235518D01*
X120571928Y-65360000D01*
X120571928Y-66960000D01*
X120584188Y-67084482D01*
X120620498Y-67204180D01*
X120679463Y-67314494D01*
X120758815Y-67411185D01*
X120773212Y-67423000D01*
X118810000Y-67423000D01*
X118785224Y-67425440D01*
X118761399Y-67432667D01*
X118739443Y-67444403D01*
X118720197Y-67460197D01*
X118704403Y-67479443D01*
X118692667Y-67501399D01*
X118685440Y-67525224D01*
X118683000Y-67550000D01*
X118683000Y-71950000D01*
X118685440Y-71974776D01*
X118692667Y-71998601D01*
X118704403Y-72020557D01*
X118720197Y-72039803D01*
X118739443Y-72055597D01*
X118761399Y-72067333D01*
X118785224Y-72074560D01*
X118810000Y-72077000D01*
X121173397Y-72077000D01*
X121146903Y-72167298D01*
X121960000Y-72980395D01*
X122773097Y-72167298D01*
X122746603Y-72077000D01*
X124730000Y-72077000D01*
X124754776Y-72074560D01*
X124778601Y-72067333D01*
X124800557Y-72055597D01*
X124819803Y-72039803D01*
X124835597Y-72020557D01*
X124847333Y-71998601D01*
X124854560Y-71974776D01*
X124857000Y-71950000D01*
X124857000Y-67550000D01*
X124854560Y-67525224D01*
X124847333Y-67501399D01*
X124835597Y-67479443D01*
X124819803Y-67460197D01*
X124800557Y-67444403D01*
X124778601Y-67432667D01*
X124754776Y-67425440D01*
X124730000Y-67423000D01*
X123146788Y-67423000D01*
X123161185Y-67411185D01*
X123240537Y-67314494D01*
X123299502Y-67204180D01*
X123335812Y-67084482D01*
X123348072Y-66960000D01*
X123348072Y-66920000D01*
X127805199Y-66920000D01*
X127997699Y-67112500D01*
X127798993Y-67311206D01*
X127769989Y-67335009D01*
X127726238Y-67388320D01*
X127675016Y-67450734D01*
X127624229Y-67545750D01*
X127604444Y-67582764D01*
X127560987Y-67726025D01*
X127549990Y-67837678D01*
X127549990Y-67837688D01*
X127546314Y-67875010D01*
X127549990Y-67912333D01*
X127549991Y-70925848D01*
X127546314Y-70963180D01*
X127549991Y-71000513D01*
X127560988Y-71112166D01*
X127569129Y-71139003D01*
X127604444Y-71255426D01*
X127675016Y-71387456D01*
X127746191Y-71474182D01*
X127769990Y-71503181D01*
X127798988Y-71526979D01*
X132063015Y-75791008D01*
X132086809Y-75820001D01*
X132115802Y-75843795D01*
X132115806Y-75843799D01*
X132152942Y-75874275D01*
X132202534Y-75914974D01*
X132334563Y-75985546D01*
X132477824Y-76029003D01*
X132589477Y-76040000D01*
X132589486Y-76040000D01*
X132626809Y-76043676D01*
X132664132Y-76040000D01*
X135288661Y-76040000D01*
X135346595Y-76148386D01*
X135457038Y-76282962D01*
X135591614Y-76393405D01*
X135745150Y-76475472D01*
X135911746Y-76526008D01*
X136085000Y-76543072D01*
X137335000Y-76543072D01*
X137508254Y-76526008D01*
X137674850Y-76475472D01*
X137676762Y-76474450D01*
X137705498Y-76569180D01*
X137764463Y-76679494D01*
X137843815Y-76776185D01*
X137940506Y-76855537D01*
X138050820Y-76914502D01*
X138170518Y-76950812D01*
X138295000Y-76963072D01*
X138634250Y-76960000D01*
X138793000Y-76801250D01*
X138793000Y-75577000D01*
X139047000Y-75577000D01*
X139047000Y-76801250D01*
X139205750Y-76960000D01*
X139545000Y-76963072D01*
X139669482Y-76950812D01*
X139789180Y-76914502D01*
X139899494Y-76855537D01*
X139996185Y-76776185D01*
X140075537Y-76679494D01*
X140134502Y-76569180D01*
X140170812Y-76449482D01*
X140183072Y-76325000D01*
X140180000Y-75735750D01*
X140021250Y-75577000D01*
X139047000Y-75577000D01*
X138793000Y-75577000D01*
X138773000Y-75577000D01*
X138773000Y-75323000D01*
X138793000Y-75323000D01*
X138793000Y-74098750D01*
X138634250Y-73940000D01*
X138295000Y-73936928D01*
X138170518Y-73949188D01*
X138050820Y-73985498D01*
X137940506Y-74044463D01*
X137843815Y-74123815D01*
X137814707Y-74159283D01*
X137674850Y-74084528D01*
X137508254Y-74033992D01*
X137335000Y-74016928D01*
X136085000Y-74016928D01*
X135911746Y-74033992D01*
X135745150Y-74084528D01*
X135591614Y-74166595D01*
X135457038Y-74277038D01*
X135346595Y-74411614D01*
X135288661Y-74520000D01*
X132941613Y-74520000D01*
X130034684Y-71613072D01*
X130135000Y-71613072D01*
X130308254Y-71596008D01*
X130474850Y-71545472D01*
X130628386Y-71463405D01*
X130762962Y-71352962D01*
X130873405Y-71218386D01*
X130931339Y-71110000D01*
X133034006Y-71110000D01*
X133086595Y-71208386D01*
X133197038Y-71342962D01*
X133331614Y-71453405D01*
X133485150Y-71535472D01*
X133651746Y-71586008D01*
X133825000Y-71603072D01*
X134638269Y-71603072D01*
X134731205Y-71696008D01*
X134754999Y-71725001D01*
X134783992Y-71748795D01*
X134783996Y-71748799D01*
X134821350Y-71779454D01*
X134870724Y-71819974D01*
X135002753Y-71890546D01*
X135146014Y-71934003D01*
X135213119Y-71940612D01*
X135196928Y-72105000D01*
X135196928Y-72855000D01*
X135213992Y-73028254D01*
X135264528Y-73194850D01*
X135346595Y-73348386D01*
X135457038Y-73482962D01*
X135591614Y-73593405D01*
X135745150Y-73675472D01*
X135911746Y-73726008D01*
X136085000Y-73743072D01*
X137335000Y-73743072D01*
X137508254Y-73726008D01*
X137674850Y-73675472D01*
X137828386Y-73593405D01*
X137962962Y-73482962D01*
X138073405Y-73348386D01*
X138155472Y-73194850D01*
X138206008Y-73028254D01*
X138223072Y-72855000D01*
X138223072Y-72848151D01*
X138224188Y-72859482D01*
X138260498Y-72979180D01*
X138319463Y-73089494D01*
X138398815Y-73186185D01*
X138422803Y-73205871D01*
X138444454Y-73277247D01*
X138515026Y-73409276D01*
X138610000Y-73525001D01*
X138638998Y-73548799D01*
X139117974Y-74027776D01*
X139047000Y-74098750D01*
X139047000Y-75323000D01*
X140021250Y-75323000D01*
X140180000Y-75164250D01*
X140180386Y-75090188D01*
X140456928Y-75366730D01*
X140456928Y-76075000D01*
X140473992Y-76248254D01*
X140524528Y-76414850D01*
X140606595Y-76568386D01*
X140717038Y-76702962D01*
X140851614Y-76813405D01*
X141005150Y-76895472D01*
X141171746Y-76946008D01*
X141345000Y-76963072D01*
X142095000Y-76963072D01*
X142268254Y-76946008D01*
X142434850Y-76895472D01*
X142588386Y-76813405D01*
X142722962Y-76702962D01*
X142833405Y-76568386D01*
X142915472Y-76414850D01*
X142966008Y-76248254D01*
X142983072Y-76075000D01*
X142983072Y-74825000D01*
X142966008Y-74651746D01*
X142915472Y-74485150D01*
X142833405Y-74331614D01*
X142722962Y-74197038D01*
X142588386Y-74086595D01*
X142434850Y-74004528D01*
X142268254Y-73953992D01*
X142095000Y-73936928D01*
X141345000Y-73936928D01*
X141191817Y-73952015D01*
X140327002Y-73087201D01*
X140327002Y-73036841D01*
X140346059Y-73035158D01*
X140369156Y-73028406D01*
X140407083Y-73066333D01*
X140419463Y-73089494D01*
X140498815Y-73186185D01*
X140595506Y-73265537D01*
X140705820Y-73324502D01*
X140825518Y-73360812D01*
X140950000Y-73373072D01*
X141550000Y-73373072D01*
X141674482Y-73360812D01*
X141794180Y-73324502D01*
X141904494Y-73265537D01*
X141929518Y-73245000D01*
X144406928Y-73245000D01*
X144406928Y-73255000D01*
X144423992Y-73428254D01*
X144474528Y-73594850D01*
X144556595Y-73748386D01*
X144667038Y-73882962D01*
X144801614Y-73993405D01*
X144955150Y-74075472D01*
X145121746Y-74126008D01*
X145295000Y-74143072D01*
X146545000Y-74143072D01*
X146718254Y-74126008D01*
X146884850Y-74075472D01*
X147038386Y-73993405D01*
X147172962Y-73882962D01*
X147283405Y-73748386D01*
X147365472Y-73594850D01*
X147416008Y-73428254D01*
X147427979Y-73306706D01*
X147429974Y-73304276D01*
X147500546Y-73172247D01*
X147544003Y-73028986D01*
X147558677Y-72880000D01*
X147544003Y-72731014D01*
X147500546Y-72587753D01*
X147429974Y-72455724D01*
X147427979Y-72453294D01*
X147427399Y-72447402D01*
X148571003Y-71303799D01*
X148600001Y-71280001D01*
X148637760Y-71233992D01*
X148694974Y-71164277D01*
X148765546Y-71032247D01*
X148767752Y-71024974D01*
X148809003Y-70888986D01*
X148820000Y-70777333D01*
X148820000Y-70777324D01*
X148823676Y-70740001D01*
X148820000Y-70702678D01*
X148820000Y-67094801D01*
X150996730Y-64918072D01*
X151660000Y-64918072D01*
X151784482Y-64905812D01*
X151904180Y-64869502D01*
X152014494Y-64810537D01*
X152060000Y-64773191D01*
X152105506Y-64810537D01*
X152215820Y-64869502D01*
X152335518Y-64905812D01*
X152460000Y-64918072D01*
X152820001Y-64918072D01*
X152820000Y-68935091D01*
X152805537Y-68941082D01*
X152537748Y-69120013D01*
X152310013Y-69347748D01*
X152131082Y-69615537D01*
X152125091Y-69630000D01*
X152080767Y-69630000D01*
X152078918Y-69625537D01*
X151899987Y-69357748D01*
X151672252Y-69130013D01*
X151404463Y-68951082D01*
X151106912Y-68827832D01*
X150791033Y-68765000D01*
X150468967Y-68765000D01*
X150153088Y-68827832D01*
X149855537Y-68951082D01*
X149587748Y-69130013D01*
X149360013Y-69357748D01*
X149181082Y-69625537D01*
X149057832Y-69923088D01*
X148995000Y-70238967D01*
X148995000Y-70561033D01*
X149057832Y-70876912D01*
X149181082Y-71174463D01*
X149360013Y-71442252D01*
X149587748Y-71669987D01*
X149855537Y-71848918D01*
X150153088Y-71972168D01*
X150468967Y-72035000D01*
X150791033Y-72035000D01*
X151106912Y-71972168D01*
X151404463Y-71848918D01*
X151672252Y-71669987D01*
X151899987Y-71442252D01*
X152078918Y-71174463D01*
X152089051Y-71150000D01*
X152125091Y-71150000D01*
X152131082Y-71164463D01*
X152310013Y-71432252D01*
X152537748Y-71659987D01*
X152805537Y-71838918D01*
X153103088Y-71962168D01*
X153418967Y-72025000D01*
X153741033Y-72025000D01*
X154056912Y-71962168D01*
X154354463Y-71838918D01*
X154622252Y-71659987D01*
X154849987Y-71432252D01*
X155005000Y-71200259D01*
X155160013Y-71432252D01*
X155387748Y-71659987D01*
X155655537Y-71838918D01*
X155953088Y-71962168D01*
X156268967Y-72025000D01*
X156591033Y-72025000D01*
X156906912Y-71962168D01*
X157204463Y-71838918D01*
X157472252Y-71659987D01*
X157699987Y-71432252D01*
X157878918Y-71164463D01*
X158002168Y-70866912D01*
X158065000Y-70551033D01*
X158065000Y-70228967D01*
X158002168Y-69913088D01*
X157878918Y-69615537D01*
X157699987Y-69347748D01*
X157472252Y-69120013D01*
X157204463Y-68941082D01*
X156906912Y-68817832D01*
X156591033Y-68755000D01*
X156268967Y-68755000D01*
X155953088Y-68817832D01*
X155655537Y-68941082D01*
X155387748Y-69120013D01*
X155160013Y-69347748D01*
X155005000Y-69579741D01*
X154849987Y-69347748D01*
X154622252Y-69120013D01*
X154354463Y-68941082D01*
X154340000Y-68935091D01*
X154340000Y-64337322D01*
X154343676Y-64299999D01*
X154340000Y-64262676D01*
X154340000Y-64262667D01*
X154329003Y-64151014D01*
X154285546Y-64007753D01*
X154214974Y-63875724D01*
X154198939Y-63856185D01*
X154143799Y-63788996D01*
X154143795Y-63788992D01*
X154120001Y-63759999D01*
X154091008Y-63736205D01*
X153798072Y-63443270D01*
X153798072Y-62780000D01*
X153785812Y-62655518D01*
X153749502Y-62535820D01*
X153690537Y-62425506D01*
X153611185Y-62328815D01*
X153514494Y-62249463D01*
X153404180Y-62190498D01*
X153284482Y-62154188D01*
X153160000Y-62141928D01*
X153080338Y-62141928D01*
X153103304Y-62086483D01*
X153130447Y-61950025D01*
X153989554Y-61950033D01*
X154016696Y-62086483D01*
X154098485Y-62283940D01*
X154217225Y-62461647D01*
X154368353Y-62612775D01*
X154546060Y-62731515D01*
X154743517Y-62813304D01*
X154821928Y-62828901D01*
X154821928Y-64280000D01*
X154834188Y-64404482D01*
X154870498Y-64524180D01*
X154929463Y-64634494D01*
X155008815Y-64731185D01*
X155105506Y-64810537D01*
X155215820Y-64869502D01*
X155335518Y-64905812D01*
X155460000Y-64918072D01*
X156160000Y-64918072D01*
X156284482Y-64905812D01*
X156404180Y-64869502D01*
X156514494Y-64810537D01*
X156611185Y-64731185D01*
X156690537Y-64634494D01*
X156749502Y-64524180D01*
X156785812Y-64404482D01*
X156798072Y-64280000D01*
X156798072Y-63918072D01*
X157710000Y-63918072D01*
X157834482Y-63905812D01*
X157954180Y-63869502D01*
X158064494Y-63810537D01*
X158161185Y-63731185D01*
X158240537Y-63634494D01*
X158299502Y-63524180D01*
X158335812Y-63404482D01*
X158348072Y-63280000D01*
X158348072Y-62480000D01*
X158335812Y-62355518D01*
X158299502Y-62235820D01*
X158240537Y-62125506D01*
X158161185Y-62028815D01*
X158064494Y-61949463D01*
X157954180Y-61890498D01*
X157834482Y-61854188D01*
X157710000Y-61841928D01*
X157119407Y-61841928D01*
X157165257Y-61826706D01*
X157173651Y-61822903D01*
X157388199Y-61723920D01*
X157415247Y-61708072D01*
X157710000Y-61708072D01*
X157834482Y-61695812D01*
X157954180Y-61659502D01*
X158064494Y-61600537D01*
X158084198Y-61584366D01*
X158304184Y-61584366D01*
X158328960Y-61581926D01*
X158352785Y-61574699D01*
X158374741Y-61562963D01*
X158393987Y-61547169D01*
X158409781Y-61527923D01*
X158421517Y-61505967D01*
X158428744Y-61482142D01*
X158431184Y-61457366D01*
X158431184Y-60503184D01*
X158452801Y-60500000D01*
X162509671Y-60500000D01*
X162500325Y-79190263D01*
X113478256Y-79209739D01*
X113474548Y-77721653D01*
X117937952Y-77721653D01*
X118093962Y-78037214D01*
X118468745Y-78228020D01*
X118873551Y-78342044D01*
X119292824Y-78374902D01*
X119710451Y-78325334D01*
X120110383Y-78195243D01*
X120406038Y-78037214D01*
X120562048Y-77721653D01*
X119250000Y-76409605D01*
X117937952Y-77721653D01*
X113474548Y-77721653D01*
X113470936Y-76272824D01*
X117105098Y-76272824D01*
X117154666Y-76690451D01*
X117284757Y-77090383D01*
X117442786Y-77386038D01*
X117758347Y-77542048D01*
X119070395Y-76230000D01*
X119429605Y-76230000D01*
X120741653Y-77542048D01*
X121057214Y-77386038D01*
X121248020Y-77011255D01*
X121362044Y-76606449D01*
X121394902Y-76187176D01*
X121345334Y-75769549D01*
X121215243Y-75369617D01*
X121057214Y-75073962D01*
X120741653Y-74917952D01*
X119429605Y-76230000D01*
X119070395Y-76230000D01*
X117758347Y-74917952D01*
X117442786Y-75073962D01*
X117251980Y-75448745D01*
X117137956Y-75853551D01*
X117105098Y-76272824D01*
X113470936Y-76272824D01*
X113467112Y-74738347D01*
X117937952Y-74738347D01*
X119250000Y-76050395D01*
X120562048Y-74738347D01*
X120406038Y-74422786D01*
X120031255Y-74231980D01*
X119749804Y-74152702D01*
X121146903Y-74152702D01*
X121218486Y-74396671D01*
X121473996Y-74517571D01*
X121748184Y-74586300D01*
X122030512Y-74600217D01*
X122310130Y-74558787D01*
X122576292Y-74463603D01*
X122701514Y-74396671D01*
X122773097Y-74152702D01*
X121960000Y-73339605D01*
X121146903Y-74152702D01*
X119749804Y-74152702D01*
X119626449Y-74117956D01*
X119207176Y-74085098D01*
X118789549Y-74134666D01*
X118389617Y-74264757D01*
X118093962Y-74422786D01*
X117937952Y-74738347D01*
X113467112Y-74738347D01*
X113463354Y-73230512D01*
X120519783Y-73230512D01*
X120561213Y-73510130D01*
X120656397Y-73776292D01*
X120723329Y-73901514D01*
X120967298Y-73973097D01*
X121780395Y-73160000D01*
X122139605Y-73160000D01*
X122952702Y-73973097D01*
X123196671Y-73901514D01*
X123317571Y-73646004D01*
X123386300Y-73371816D01*
X123400217Y-73089488D01*
X123358787Y-72809870D01*
X123263603Y-72543708D01*
X123196671Y-72418486D01*
X122952702Y-72346903D01*
X122139605Y-73160000D01*
X121780395Y-73160000D01*
X120967298Y-72346903D01*
X120723329Y-72418486D01*
X120602429Y-72673996D01*
X120533700Y-72948184D01*
X120519783Y-73230512D01*
X113463354Y-73230512D01*
X113441797Y-64581653D01*
X117937952Y-64581653D01*
X118093962Y-64897214D01*
X118468745Y-65088020D01*
X118873551Y-65202044D01*
X119292824Y-65234902D01*
X119710451Y-65185334D01*
X120110383Y-65055243D01*
X120406038Y-64897214D01*
X120562048Y-64581653D01*
X119250000Y-63269605D01*
X117937952Y-64581653D01*
X113441797Y-64581653D01*
X113438185Y-63132824D01*
X117105098Y-63132824D01*
X117154666Y-63550451D01*
X117284757Y-63950383D01*
X117442786Y-64246038D01*
X117758347Y-64402048D01*
X119070395Y-63090000D01*
X119429605Y-63090000D01*
X120741653Y-64402048D01*
X121057214Y-64246038D01*
X121248020Y-63871255D01*
X121362044Y-63466449D01*
X121366859Y-63405000D01*
X133726928Y-63405000D01*
X133739188Y-63529482D01*
X133775498Y-63649180D01*
X133834463Y-63759494D01*
X133913815Y-63856185D01*
X134010506Y-63935537D01*
X134120820Y-63994502D01*
X134240518Y-64030812D01*
X134365000Y-64043072D01*
X134704250Y-64040000D01*
X134863000Y-63881250D01*
X134863000Y-62657000D01*
X135117000Y-62657000D01*
X135117000Y-63881250D01*
X135275750Y-64040000D01*
X135615000Y-64043072D01*
X135739482Y-64030812D01*
X135859180Y-63994502D01*
X135969494Y-63935537D01*
X136066185Y-63856185D01*
X136145537Y-63759494D01*
X136204502Y-63649180D01*
X136240812Y-63529482D01*
X136253072Y-63405000D01*
X136250000Y-62815750D01*
X136091250Y-62657000D01*
X135117000Y-62657000D01*
X134863000Y-62657000D01*
X133888750Y-62657000D01*
X133730000Y-62815750D01*
X133726928Y-63405000D01*
X121366859Y-63405000D01*
X121394902Y-63047176D01*
X121345334Y-62629549D01*
X121215243Y-62229617D01*
X121057214Y-61933962D01*
X120741653Y-61777952D01*
X119429605Y-63090000D01*
X119070395Y-63090000D01*
X117758347Y-61777952D01*
X117442786Y-61933962D01*
X117251980Y-62308745D01*
X117137956Y-62713551D01*
X117105098Y-63132824D01*
X113438185Y-63132824D01*
X113434360Y-61598347D01*
X117937952Y-61598347D01*
X119250000Y-62910395D01*
X120505395Y-61655000D01*
X133726928Y-61655000D01*
X133730000Y-62244250D01*
X133888750Y-62403000D01*
X134863000Y-62403000D01*
X134863000Y-61178750D01*
X135117000Y-61178750D01*
X135117000Y-62403000D01*
X136091250Y-62403000D01*
X136250000Y-62244250D01*
X136251768Y-61905000D01*
X136526928Y-61905000D01*
X136526928Y-63155000D01*
X136543992Y-63328254D01*
X136594528Y-63494850D01*
X136676595Y-63648386D01*
X136787038Y-63782962D01*
X136921614Y-63893405D01*
X137075150Y-63975472D01*
X137241746Y-64026008D01*
X137415000Y-64043072D01*
X138165000Y-64043072D01*
X138338254Y-64026008D01*
X138504850Y-63975472D01*
X138658386Y-63893405D01*
X138792962Y-63782962D01*
X138903405Y-63648386D01*
X138985472Y-63494850D01*
X139035478Y-63330000D01*
X140070224Y-63330000D01*
X140073992Y-63368254D01*
X140124528Y-63534850D01*
X140206595Y-63688386D01*
X140317038Y-63822962D01*
X140451614Y-63933405D01*
X140605150Y-64015472D01*
X140771746Y-64066008D01*
X140945000Y-64083072D01*
X141695000Y-64083072D01*
X141868254Y-64066008D01*
X142034850Y-64015472D01*
X142188386Y-63933405D01*
X142322962Y-63822962D01*
X142433405Y-63688386D01*
X142515472Y-63534850D01*
X142566008Y-63368254D01*
X142583072Y-63195000D01*
X142583072Y-61945000D01*
X142566008Y-61771746D01*
X142515472Y-61605150D01*
X142433405Y-61451614D01*
X142322962Y-61317038D01*
X142188386Y-61206595D01*
X142034850Y-61124528D01*
X141868254Y-61073992D01*
X141695000Y-61056928D01*
X140945000Y-61056928D01*
X140771746Y-61073992D01*
X140605150Y-61124528D01*
X140451614Y-61206595D01*
X140317038Y-61317038D01*
X140206595Y-61451614D01*
X140124528Y-61605150D01*
X140073992Y-61771746D01*
X140070224Y-61810000D01*
X139043715Y-61810000D01*
X139036008Y-61731746D01*
X138985472Y-61565150D01*
X138903405Y-61411614D01*
X138792962Y-61277038D01*
X138658386Y-61166595D01*
X138504850Y-61084528D01*
X138338254Y-61033992D01*
X138165000Y-61016928D01*
X137415000Y-61016928D01*
X137241746Y-61033992D01*
X137075150Y-61084528D01*
X136921614Y-61166595D01*
X136787038Y-61277038D01*
X136676595Y-61411614D01*
X136594528Y-61565150D01*
X136543992Y-61731746D01*
X136526928Y-61905000D01*
X136251768Y-61905000D01*
X136253072Y-61655000D01*
X136240812Y-61530518D01*
X136204502Y-61410820D01*
X136145537Y-61300506D01*
X136066185Y-61203815D01*
X135969494Y-61124463D01*
X135859180Y-61065498D01*
X135739482Y-61029188D01*
X135615000Y-61016928D01*
X135275750Y-61020000D01*
X135117000Y-61178750D01*
X134863000Y-61178750D01*
X134704250Y-61020000D01*
X134365000Y-61016928D01*
X134240518Y-61029188D01*
X134120820Y-61065498D01*
X134010506Y-61124463D01*
X133913815Y-61203815D01*
X133834463Y-61300506D01*
X133775498Y-61410820D01*
X133739188Y-61530518D01*
X133726928Y-61655000D01*
X120505395Y-61655000D01*
X120562048Y-61598347D01*
X120406038Y-61282786D01*
X120031255Y-61091980D01*
X119626449Y-60977956D01*
X119207176Y-60945098D01*
X118789549Y-60994666D01*
X118389617Y-61124757D01*
X118093962Y-61282786D01*
X117937952Y-61598347D01*
X113434360Y-61598347D01*
X113431646Y-60509628D01*
X148108898Y-60490152D01*
X148097193Y-61455827D01*
G37*
X148097193Y-61455827D02*
X148099333Y-61480631D01*
X148106271Y-61504541D01*
X148117740Y-61526638D01*
X148133300Y-61546074D01*
X148152352Y-61562100D01*
X148174165Y-61574101D01*
X148197900Y-61581616D01*
X148224184Y-61584366D01*
X149035802Y-61584366D01*
X149055506Y-61600537D01*
X149165820Y-61659502D01*
X149285518Y-61695812D01*
X149401109Y-61707196D01*
X149557693Y-61788769D01*
X149613148Y-61811081D01*
X149668366Y-61834199D01*
X149677192Y-61836849D01*
X149694541Y-61841928D01*
X149410000Y-61841928D01*
X149285518Y-61854188D01*
X149165820Y-61890498D01*
X149055506Y-61949463D01*
X148958815Y-62028815D01*
X148879463Y-62125506D01*
X148820498Y-62235820D01*
X148784188Y-62355518D01*
X148771928Y-62480000D01*
X148771928Y-63280000D01*
X148784188Y-63404482D01*
X148801029Y-63460000D01*
X146174803Y-63460000D01*
X145383072Y-62668270D01*
X145383072Y-61945000D01*
X145366008Y-61771746D01*
X145315472Y-61605150D01*
X145233405Y-61451614D01*
X145122962Y-61317038D01*
X144988386Y-61206595D01*
X144834850Y-61124528D01*
X144668254Y-61073992D01*
X144495000Y-61056928D01*
X143745000Y-61056928D01*
X143571746Y-61073992D01*
X143405150Y-61124528D01*
X143251614Y-61206595D01*
X143117038Y-61317038D01*
X143006595Y-61451614D01*
X142924528Y-61605150D01*
X142873992Y-61771746D01*
X142856928Y-61945000D01*
X142856928Y-63195000D01*
X142873992Y-63368254D01*
X142924528Y-63534850D01*
X143006595Y-63688386D01*
X143117038Y-63822962D01*
X143251614Y-63933405D01*
X143405150Y-64015472D01*
X143571746Y-64066008D01*
X143745000Y-64083072D01*
X144495000Y-64083072D01*
X144634528Y-64069330D01*
X145296205Y-64731008D01*
X145319999Y-64760001D01*
X145348992Y-64783795D01*
X145348996Y-64783799D01*
X145381577Y-64810537D01*
X145435724Y-64854974D01*
X145567753Y-64925546D01*
X145711014Y-64969003D01*
X145822667Y-64980000D01*
X145822676Y-64980000D01*
X145859999Y-64983676D01*
X145897322Y-64980000D01*
X148785199Y-64980000D01*
X147549003Y-66216196D01*
X147519999Y-66239999D01*
X147481486Y-66286928D01*
X147425026Y-66355724D01*
X147378779Y-66442246D01*
X147354454Y-66487754D01*
X147310997Y-66631015D01*
X147300000Y-66742668D01*
X147300000Y-66742678D01*
X147296324Y-66780000D01*
X147300000Y-66817323D01*
X147300001Y-69069390D01*
X147246185Y-69003815D01*
X147149494Y-68924463D01*
X147039180Y-68865498D01*
X146919482Y-68829188D01*
X146795000Y-68816928D01*
X146205750Y-68820000D01*
X146047000Y-68978750D01*
X146047000Y-69953000D01*
X146067000Y-69953000D01*
X146067000Y-70207000D01*
X146047000Y-70207000D01*
X146047000Y-71181250D01*
X146205750Y-71340000D01*
X146384268Y-71340931D01*
X146108271Y-71616928D01*
X145295000Y-71616928D01*
X145121746Y-71633992D01*
X144955150Y-71684528D01*
X144879432Y-71725000D01*
X142188072Y-71725000D01*
X142188072Y-71585000D01*
X142180367Y-71506766D01*
X142185000Y-71466750D01*
X142174525Y-71456275D01*
X142139502Y-71340820D01*
X142080537Y-71230506D01*
X142043191Y-71185000D01*
X142080537Y-71139494D01*
X142139502Y-71029180D01*
X142174525Y-70913725D01*
X142185000Y-70903250D01*
X142180367Y-70863234D01*
X142188072Y-70785000D01*
X142188072Y-70705000D01*
X144406928Y-70705000D01*
X144419188Y-70829482D01*
X144455498Y-70949180D01*
X144514463Y-71059494D01*
X144593815Y-71156185D01*
X144690506Y-71235537D01*
X144800820Y-71294502D01*
X144920518Y-71330812D01*
X145045000Y-71343072D01*
X145634250Y-71340000D01*
X145793000Y-71181250D01*
X145793000Y-70207000D01*
X144568750Y-70207000D01*
X144410000Y-70365750D01*
X144406928Y-70705000D01*
X142188072Y-70705000D01*
X142188072Y-70285000D01*
X142175812Y-70160518D01*
X142139502Y-70040820D01*
X142080537Y-69930506D01*
X142001185Y-69833815D01*
X141904494Y-69754463D01*
X141794180Y-69695498D01*
X141674482Y-69659188D01*
X141606122Y-69652455D01*
X141600002Y-69644998D01*
X141484277Y-69550025D01*
X141352248Y-69479453D01*
X141271636Y-69455000D01*
X144406928Y-69455000D01*
X144410000Y-69794250D01*
X144568750Y-69953000D01*
X145793000Y-69953000D01*
X145793000Y-68978750D01*
X145634250Y-68820000D01*
X145045000Y-68816928D01*
X144920518Y-68829188D01*
X144800820Y-68865498D01*
X144690506Y-68924463D01*
X144593815Y-69003815D01*
X144514463Y-69100506D01*
X144455498Y-69210820D01*
X144419188Y-69330518D01*
X144406928Y-69455000D01*
X141271636Y-69455000D01*
X141208987Y-69435996D01*
X141097334Y-69424999D01*
X141097323Y-69424999D01*
X141060001Y-69421323D01*
X141022679Y-69424999D01*
X139910000Y-69424999D01*
X139910000Y-68771595D01*
X140068254Y-68756008D01*
X140234850Y-68705472D01*
X140388386Y-68623405D01*
X140522962Y-68512962D01*
X140633405Y-68378386D01*
X140715472Y-68224850D01*
X140742727Y-68135000D01*
X141056928Y-68135000D01*
X141069188Y-68259482D01*
X141105498Y-68379180D01*
X141164463Y-68489494D01*
X141243815Y-68586185D01*
X141340506Y-68665537D01*
X141450820Y-68724502D01*
X141570518Y-68760812D01*
X141695000Y-68773072D01*
X142034250Y-68770000D01*
X142193000Y-68611250D01*
X142193000Y-67387000D01*
X142447000Y-67387000D01*
X142447000Y-68611250D01*
X142605750Y-68770000D01*
X142945000Y-68773072D01*
X143069482Y-68760812D01*
X143189180Y-68724502D01*
X143299494Y-68665537D01*
X143396185Y-68586185D01*
X143475537Y-68489494D01*
X143534502Y-68379180D01*
X143570812Y-68259482D01*
X143583072Y-68135000D01*
X143580000Y-67545750D01*
X143421250Y-67387000D01*
X142447000Y-67387000D01*
X142193000Y-67387000D01*
X141218750Y-67387000D01*
X141060000Y-67545750D01*
X141056928Y-68135000D01*
X140742727Y-68135000D01*
X140766008Y-68058254D01*
X140783072Y-67885000D01*
X140783072Y-66635000D01*
X140766008Y-66461746D01*
X140742728Y-66385000D01*
X141056928Y-66385000D01*
X141060000Y-66974250D01*
X141218750Y-67133000D01*
X142193000Y-67133000D01*
X142193000Y-65908750D01*
X142447000Y-65908750D01*
X142447000Y-67133000D01*
X143421250Y-67133000D01*
X143580000Y-66974250D01*
X143583072Y-66385000D01*
X143570812Y-66260518D01*
X143534502Y-66140820D01*
X143475537Y-66030506D01*
X143396185Y-65933815D01*
X143299494Y-65854463D01*
X143189180Y-65795498D01*
X143069482Y-65759188D01*
X142945000Y-65746928D01*
X142605750Y-65750000D01*
X142447000Y-65908750D01*
X142193000Y-65908750D01*
X142034250Y-65750000D01*
X141695000Y-65746928D01*
X141570518Y-65759188D01*
X141450820Y-65795498D01*
X141340506Y-65854463D01*
X141243815Y-65933815D01*
X141164463Y-66030506D01*
X141105498Y-66140820D01*
X141069188Y-66260518D01*
X141056928Y-66385000D01*
X140742728Y-66385000D01*
X140715472Y-66295150D01*
X140633405Y-66141614D01*
X140522962Y-66007038D01*
X140388386Y-65896595D01*
X140234850Y-65814528D01*
X140068254Y-65763992D01*
X139895000Y-65746928D01*
X139145000Y-65746928D01*
X138971746Y-65763992D01*
X138805150Y-65814528D01*
X138651614Y-65896595D01*
X138517038Y-66007038D01*
X138406595Y-66141614D01*
X138324528Y-66295150D01*
X138273992Y-66461746D01*
X138256928Y-66635000D01*
X138256928Y-67448271D01*
X137975189Y-67730010D01*
X135864260Y-67730010D01*
X135801250Y-67667000D01*
X134577000Y-67667000D01*
X134577000Y-67687000D01*
X134323000Y-67687000D01*
X134323000Y-67667000D01*
X133098750Y-67667000D01*
X133035740Y-67730010D01*
X131023072Y-67730010D01*
X131023072Y-67175000D01*
X131006008Y-67001746D01*
X130979695Y-66915000D01*
X132936928Y-66915000D01*
X132940000Y-67254250D01*
X133098750Y-67413000D01*
X134323000Y-67413000D01*
X134323000Y-66438750D01*
X134577000Y-66438750D01*
X134577000Y-67413000D01*
X135801250Y-67413000D01*
X135960000Y-67254250D01*
X135963072Y-66915000D01*
X135950812Y-66790518D01*
X135914502Y-66670820D01*
X135855537Y-66560506D01*
X135776185Y-66463815D01*
X135679494Y-66384463D01*
X135569180Y-66325498D01*
X135449482Y-66289188D01*
X135325000Y-66276928D01*
X134735750Y-66280000D01*
X134577000Y-66438750D01*
X134323000Y-66438750D01*
X134164250Y-66280000D01*
X133575000Y-66276928D01*
X133450518Y-66289188D01*
X133330820Y-66325498D01*
X133220506Y-66384463D01*
X133123815Y-66463815D01*
X133044463Y-66560506D01*
X132985498Y-66670820D01*
X132949188Y-66790518D01*
X132936928Y-66915000D01*
X130979695Y-66915000D01*
X130955472Y-66835150D01*
X130873405Y-66681614D01*
X130762962Y-66547038D01*
X130628386Y-66436595D01*
X130474850Y-66354528D01*
X130308254Y-66303992D01*
X130135000Y-66286928D01*
X129321729Y-66286928D01*
X128683804Y-65649003D01*
X128660001Y-65619999D01*
X128544276Y-65525026D01*
X128412247Y-65454454D01*
X128268986Y-65410997D01*
X128157333Y-65400000D01*
X128157322Y-65400000D01*
X128120000Y-65396324D01*
X128082678Y-65400000D01*
X123348072Y-65400000D01*
X123348072Y-65360000D01*
X123335812Y-65235518D01*
X123299502Y-65115820D01*
X123240537Y-65005506D01*
X123161185Y-64908815D01*
X123064494Y-64829463D01*
X122954180Y-64770498D01*
X122834482Y-64734188D01*
X122710000Y-64721928D01*
X121210000Y-64721928D01*
X121085518Y-64734188D01*
X120965820Y-64770498D01*
X120855506Y-64829463D01*
X120758815Y-64908815D01*
X120679463Y-65005506D01*
X120620498Y-65115820D01*
X120584188Y-65235518D01*
X120571928Y-65360000D01*
X120571928Y-66960000D01*
X120584188Y-67084482D01*
X120620498Y-67204180D01*
X120679463Y-67314494D01*
X120758815Y-67411185D01*
X120773212Y-67423000D01*
X118810000Y-67423000D01*
X118785224Y-67425440D01*
X118761399Y-67432667D01*
X118739443Y-67444403D01*
X118720197Y-67460197D01*
X118704403Y-67479443D01*
X118692667Y-67501399D01*
X118685440Y-67525224D01*
X118683000Y-67550000D01*
X118683000Y-71950000D01*
X118685440Y-71974776D01*
X118692667Y-71998601D01*
X118704403Y-72020557D01*
X118720197Y-72039803D01*
X118739443Y-72055597D01*
X118761399Y-72067333D01*
X118785224Y-72074560D01*
X118810000Y-72077000D01*
X121173397Y-72077000D01*
X121146903Y-72167298D01*
X121960000Y-72980395D01*
X122773097Y-72167298D01*
X122746603Y-72077000D01*
X124730000Y-72077000D01*
X124754776Y-72074560D01*
X124778601Y-72067333D01*
X124800557Y-72055597D01*
X124819803Y-72039803D01*
X124835597Y-72020557D01*
X124847333Y-71998601D01*
X124854560Y-71974776D01*
X124857000Y-71950000D01*
X124857000Y-67550000D01*
X124854560Y-67525224D01*
X124847333Y-67501399D01*
X124835597Y-67479443D01*
X124819803Y-67460197D01*
X124800557Y-67444403D01*
X124778601Y-67432667D01*
X124754776Y-67425440D01*
X124730000Y-67423000D01*
X123146788Y-67423000D01*
X123161185Y-67411185D01*
X123240537Y-67314494D01*
X123299502Y-67204180D01*
X123335812Y-67084482D01*
X123348072Y-66960000D01*
X123348072Y-66920000D01*
X127805199Y-66920000D01*
X127997699Y-67112500D01*
X127798993Y-67311206D01*
X127769989Y-67335009D01*
X127726238Y-67388320D01*
X127675016Y-67450734D01*
X127624229Y-67545750D01*
X127604444Y-67582764D01*
X127560987Y-67726025D01*
X127549990Y-67837678D01*
X127549990Y-67837688D01*
X127546314Y-67875010D01*
X127549990Y-67912333D01*
X127549991Y-70925848D01*
X127546314Y-70963180D01*
X127549991Y-71000513D01*
X127560988Y-71112166D01*
X127569129Y-71139003D01*
X127604444Y-71255426D01*
X127675016Y-71387456D01*
X127746191Y-71474182D01*
X127769990Y-71503181D01*
X127798988Y-71526979D01*
X132063015Y-75791008D01*
X132086809Y-75820001D01*
X132115802Y-75843795D01*
X132115806Y-75843799D01*
X132152942Y-75874275D01*
X132202534Y-75914974D01*
X132334563Y-75985546D01*
X132477824Y-76029003D01*
X132589477Y-76040000D01*
X132589486Y-76040000D01*
X132626809Y-76043676D01*
X132664132Y-76040000D01*
X135288661Y-76040000D01*
X135346595Y-76148386D01*
X135457038Y-76282962D01*
X135591614Y-76393405D01*
X135745150Y-76475472D01*
X135911746Y-76526008D01*
X136085000Y-76543072D01*
X137335000Y-76543072D01*
X137508254Y-76526008D01*
X137674850Y-76475472D01*
X137676762Y-76474450D01*
X137705498Y-76569180D01*
X137764463Y-76679494D01*
X137843815Y-76776185D01*
X137940506Y-76855537D01*
X138050820Y-76914502D01*
X138170518Y-76950812D01*
X138295000Y-76963072D01*
X138634250Y-76960000D01*
X138793000Y-76801250D01*
X138793000Y-75577000D01*
X139047000Y-75577000D01*
X139047000Y-76801250D01*
X139205750Y-76960000D01*
X139545000Y-76963072D01*
X139669482Y-76950812D01*
X139789180Y-76914502D01*
X139899494Y-76855537D01*
X139996185Y-76776185D01*
X140075537Y-76679494D01*
X140134502Y-76569180D01*
X140170812Y-76449482D01*
X140183072Y-76325000D01*
X140180000Y-75735750D01*
X140021250Y-75577000D01*
X139047000Y-75577000D01*
X138793000Y-75577000D01*
X138773000Y-75577000D01*
X138773000Y-75323000D01*
X138793000Y-75323000D01*
X138793000Y-74098750D01*
X138634250Y-73940000D01*
X138295000Y-73936928D01*
X138170518Y-73949188D01*
X138050820Y-73985498D01*
X137940506Y-74044463D01*
X137843815Y-74123815D01*
X137814707Y-74159283D01*
X137674850Y-74084528D01*
X137508254Y-74033992D01*
X137335000Y-74016928D01*
X136085000Y-74016928D01*
X135911746Y-74033992D01*
X135745150Y-74084528D01*
X135591614Y-74166595D01*
X135457038Y-74277038D01*
X135346595Y-74411614D01*
X135288661Y-74520000D01*
X132941613Y-74520000D01*
X130034684Y-71613072D01*
X130135000Y-71613072D01*
X130308254Y-71596008D01*
X130474850Y-71545472D01*
X130628386Y-71463405D01*
X130762962Y-71352962D01*
X130873405Y-71218386D01*
X130931339Y-71110000D01*
X133034006Y-71110000D01*
X133086595Y-71208386D01*
X133197038Y-71342962D01*
X133331614Y-71453405D01*
X133485150Y-71535472D01*
X133651746Y-71586008D01*
X133825000Y-71603072D01*
X134638269Y-71603072D01*
X134731205Y-71696008D01*
X134754999Y-71725001D01*
X134783992Y-71748795D01*
X134783996Y-71748799D01*
X134821350Y-71779454D01*
X134870724Y-71819974D01*
X135002753Y-71890546D01*
X135146014Y-71934003D01*
X135213119Y-71940612D01*
X135196928Y-72105000D01*
X135196928Y-72855000D01*
X135213992Y-73028254D01*
X135264528Y-73194850D01*
X135346595Y-73348386D01*
X135457038Y-73482962D01*
X135591614Y-73593405D01*
X135745150Y-73675472D01*
X135911746Y-73726008D01*
X136085000Y-73743072D01*
X137335000Y-73743072D01*
X137508254Y-73726008D01*
X137674850Y-73675472D01*
X137828386Y-73593405D01*
X137962962Y-73482962D01*
X138073405Y-73348386D01*
X138155472Y-73194850D01*
X138206008Y-73028254D01*
X138223072Y-72855000D01*
X138223072Y-72848151D01*
X138224188Y-72859482D01*
X138260498Y-72979180D01*
X138319463Y-73089494D01*
X138398815Y-73186185D01*
X138422803Y-73205871D01*
X138444454Y-73277247D01*
X138515026Y-73409276D01*
X138610000Y-73525001D01*
X138638998Y-73548799D01*
X139117974Y-74027776D01*
X139047000Y-74098750D01*
X139047000Y-75323000D01*
X140021250Y-75323000D01*
X140180000Y-75164250D01*
X140180386Y-75090188D01*
X140456928Y-75366730D01*
X140456928Y-76075000D01*
X140473992Y-76248254D01*
X140524528Y-76414850D01*
X140606595Y-76568386D01*
X140717038Y-76702962D01*
X140851614Y-76813405D01*
X141005150Y-76895472D01*
X141171746Y-76946008D01*
X141345000Y-76963072D01*
X142095000Y-76963072D01*
X142268254Y-76946008D01*
X142434850Y-76895472D01*
X142588386Y-76813405D01*
X142722962Y-76702962D01*
X142833405Y-76568386D01*
X142915472Y-76414850D01*
X142966008Y-76248254D01*
X142983072Y-76075000D01*
X142983072Y-74825000D01*
X142966008Y-74651746D01*
X142915472Y-74485150D01*
X142833405Y-74331614D01*
X142722962Y-74197038D01*
X142588386Y-74086595D01*
X142434850Y-74004528D01*
X142268254Y-73953992D01*
X142095000Y-73936928D01*
X141345000Y-73936928D01*
X141191817Y-73952015D01*
X140327002Y-73087201D01*
X140327002Y-73036841D01*
X140346059Y-73035158D01*
X140369156Y-73028406D01*
X140407083Y-73066333D01*
X140419463Y-73089494D01*
X140498815Y-73186185D01*
X140595506Y-73265537D01*
X140705820Y-73324502D01*
X140825518Y-73360812D01*
X140950000Y-73373072D01*
X141550000Y-73373072D01*
X141674482Y-73360812D01*
X141794180Y-73324502D01*
X141904494Y-73265537D01*
X141929518Y-73245000D01*
X144406928Y-73245000D01*
X144406928Y-73255000D01*
X144423992Y-73428254D01*
X144474528Y-73594850D01*
X144556595Y-73748386D01*
X144667038Y-73882962D01*
X144801614Y-73993405D01*
X144955150Y-74075472D01*
X145121746Y-74126008D01*
X145295000Y-74143072D01*
X146545000Y-74143072D01*
X146718254Y-74126008D01*
X146884850Y-74075472D01*
X147038386Y-73993405D01*
X147172962Y-73882962D01*
X147283405Y-73748386D01*
X147365472Y-73594850D01*
X147416008Y-73428254D01*
X147427979Y-73306706D01*
X147429974Y-73304276D01*
X147500546Y-73172247D01*
X147544003Y-73028986D01*
X147558677Y-72880000D01*
X147544003Y-72731014D01*
X147500546Y-72587753D01*
X147429974Y-72455724D01*
X147427979Y-72453294D01*
X147427399Y-72447402D01*
X148571003Y-71303799D01*
X148600001Y-71280001D01*
X148637760Y-71233992D01*
X148694974Y-71164277D01*
X148765546Y-71032247D01*
X148767752Y-71024974D01*
X148809003Y-70888986D01*
X148820000Y-70777333D01*
X148820000Y-70777324D01*
X148823676Y-70740001D01*
X148820000Y-70702678D01*
X148820000Y-67094801D01*
X150996730Y-64918072D01*
X151660000Y-64918072D01*
X151784482Y-64905812D01*
X151904180Y-64869502D01*
X152014494Y-64810537D01*
X152060000Y-64773191D01*
X152105506Y-64810537D01*
X152215820Y-64869502D01*
X152335518Y-64905812D01*
X152460000Y-64918072D01*
X152820001Y-64918072D01*
X152820000Y-68935091D01*
X152805537Y-68941082D01*
X152537748Y-69120013D01*
X152310013Y-69347748D01*
X152131082Y-69615537D01*
X152125091Y-69630000D01*
X152080767Y-69630000D01*
X152078918Y-69625537D01*
X151899987Y-69357748D01*
X151672252Y-69130013D01*
X151404463Y-68951082D01*
X151106912Y-68827832D01*
X150791033Y-68765000D01*
X150468967Y-68765000D01*
X150153088Y-68827832D01*
X149855537Y-68951082D01*
X149587748Y-69130013D01*
X149360013Y-69357748D01*
X149181082Y-69625537D01*
X149057832Y-69923088D01*
X148995000Y-70238967D01*
X148995000Y-70561033D01*
X149057832Y-70876912D01*
X149181082Y-71174463D01*
X149360013Y-71442252D01*
X149587748Y-71669987D01*
X149855537Y-71848918D01*
X150153088Y-71972168D01*
X150468967Y-72035000D01*
X150791033Y-72035000D01*
X151106912Y-71972168D01*
X151404463Y-71848918D01*
X151672252Y-71669987D01*
X151899987Y-71442252D01*
X152078918Y-71174463D01*
X152089051Y-71150000D01*
X152125091Y-71150000D01*
X152131082Y-71164463D01*
X152310013Y-71432252D01*
X152537748Y-71659987D01*
X152805537Y-71838918D01*
X153103088Y-71962168D01*
X153418967Y-72025000D01*
X153741033Y-72025000D01*
X154056912Y-71962168D01*
X154354463Y-71838918D01*
X154622252Y-71659987D01*
X154849987Y-71432252D01*
X155005000Y-71200259D01*
X155160013Y-71432252D01*
X155387748Y-71659987D01*
X155655537Y-71838918D01*
X155953088Y-71962168D01*
X156268967Y-72025000D01*
X156591033Y-72025000D01*
X156906912Y-71962168D01*
X157204463Y-71838918D01*
X157472252Y-71659987D01*
X157699987Y-71432252D01*
X157878918Y-71164463D01*
X158002168Y-70866912D01*
X158065000Y-70551033D01*
X158065000Y-70228967D01*
X158002168Y-69913088D01*
X157878918Y-69615537D01*
X157699987Y-69347748D01*
X157472252Y-69120013D01*
X157204463Y-68941082D01*
X156906912Y-68817832D01*
X156591033Y-68755000D01*
X156268967Y-68755000D01*
X155953088Y-68817832D01*
X155655537Y-68941082D01*
X155387748Y-69120013D01*
X155160013Y-69347748D01*
X155005000Y-69579741D01*
X154849987Y-69347748D01*
X154622252Y-69120013D01*
X154354463Y-68941082D01*
X154340000Y-68935091D01*
X154340000Y-64337322D01*
X154343676Y-64299999D01*
X154340000Y-64262676D01*
X154340000Y-64262667D01*
X154329003Y-64151014D01*
X154285546Y-64007753D01*
X154214974Y-63875724D01*
X154198939Y-63856185D01*
X154143799Y-63788996D01*
X154143795Y-63788992D01*
X154120001Y-63759999D01*
X154091008Y-63736205D01*
X153798072Y-63443270D01*
X153798072Y-62780000D01*
X153785812Y-62655518D01*
X153749502Y-62535820D01*
X153690537Y-62425506D01*
X153611185Y-62328815D01*
X153514494Y-62249463D01*
X153404180Y-62190498D01*
X153284482Y-62154188D01*
X153160000Y-62141928D01*
X153080338Y-62141928D01*
X153103304Y-62086483D01*
X153130447Y-61950025D01*
X153989554Y-61950033D01*
X154016696Y-62086483D01*
X154098485Y-62283940D01*
X154217225Y-62461647D01*
X154368353Y-62612775D01*
X154546060Y-62731515D01*
X154743517Y-62813304D01*
X154821928Y-62828901D01*
X154821928Y-64280000D01*
X154834188Y-64404482D01*
X154870498Y-64524180D01*
X154929463Y-64634494D01*
X155008815Y-64731185D01*
X155105506Y-64810537D01*
X155215820Y-64869502D01*
X155335518Y-64905812D01*
X155460000Y-64918072D01*
X156160000Y-64918072D01*
X156284482Y-64905812D01*
X156404180Y-64869502D01*
X156514494Y-64810537D01*
X156611185Y-64731185D01*
X156690537Y-64634494D01*
X156749502Y-64524180D01*
X156785812Y-64404482D01*
X156798072Y-64280000D01*
X156798072Y-63918072D01*
X157710000Y-63918072D01*
X157834482Y-63905812D01*
X157954180Y-63869502D01*
X158064494Y-63810537D01*
X158161185Y-63731185D01*
X158240537Y-63634494D01*
X158299502Y-63524180D01*
X158335812Y-63404482D01*
X158348072Y-63280000D01*
X158348072Y-62480000D01*
X158335812Y-62355518D01*
X158299502Y-62235820D01*
X158240537Y-62125506D01*
X158161185Y-62028815D01*
X158064494Y-61949463D01*
X157954180Y-61890498D01*
X157834482Y-61854188D01*
X157710000Y-61841928D01*
X157119407Y-61841928D01*
X157165257Y-61826706D01*
X157173651Y-61822903D01*
X157388199Y-61723920D01*
X157415247Y-61708072D01*
X157710000Y-61708072D01*
X157834482Y-61695812D01*
X157954180Y-61659502D01*
X158064494Y-61600537D01*
X158084198Y-61584366D01*
X158304184Y-61584366D01*
X158328960Y-61581926D01*
X158352785Y-61574699D01*
X158374741Y-61562963D01*
X158393987Y-61547169D01*
X158409781Y-61527923D01*
X158421517Y-61505967D01*
X158428744Y-61482142D01*
X158431184Y-61457366D01*
X158431184Y-60503184D01*
X158452801Y-60500000D01*
X162509671Y-60500000D01*
X162500325Y-79190263D01*
X113478256Y-79209739D01*
X113474548Y-77721653D01*
X117937952Y-77721653D01*
X118093962Y-78037214D01*
X118468745Y-78228020D01*
X118873551Y-78342044D01*
X119292824Y-78374902D01*
X119710451Y-78325334D01*
X120110383Y-78195243D01*
X120406038Y-78037214D01*
X120562048Y-77721653D01*
X119250000Y-76409605D01*
X117937952Y-77721653D01*
X113474548Y-77721653D01*
X113470936Y-76272824D01*
X117105098Y-76272824D01*
X117154666Y-76690451D01*
X117284757Y-77090383D01*
X117442786Y-77386038D01*
X117758347Y-77542048D01*
X119070395Y-76230000D01*
X119429605Y-76230000D01*
X120741653Y-77542048D01*
X121057214Y-77386038D01*
X121248020Y-77011255D01*
X121362044Y-76606449D01*
X121394902Y-76187176D01*
X121345334Y-75769549D01*
X121215243Y-75369617D01*
X121057214Y-75073962D01*
X120741653Y-74917952D01*
X119429605Y-76230000D01*
X119070395Y-76230000D01*
X117758347Y-74917952D01*
X117442786Y-75073962D01*
X117251980Y-75448745D01*
X117137956Y-75853551D01*
X117105098Y-76272824D01*
X113470936Y-76272824D01*
X113467112Y-74738347D01*
X117937952Y-74738347D01*
X119250000Y-76050395D01*
X120562048Y-74738347D01*
X120406038Y-74422786D01*
X120031255Y-74231980D01*
X119749804Y-74152702D01*
X121146903Y-74152702D01*
X121218486Y-74396671D01*
X121473996Y-74517571D01*
X121748184Y-74586300D01*
X122030512Y-74600217D01*
X122310130Y-74558787D01*
X122576292Y-74463603D01*
X122701514Y-74396671D01*
X122773097Y-74152702D01*
X121960000Y-73339605D01*
X121146903Y-74152702D01*
X119749804Y-74152702D01*
X119626449Y-74117956D01*
X119207176Y-74085098D01*
X118789549Y-74134666D01*
X118389617Y-74264757D01*
X118093962Y-74422786D01*
X117937952Y-74738347D01*
X113467112Y-74738347D01*
X113463354Y-73230512D01*
X120519783Y-73230512D01*
X120561213Y-73510130D01*
X120656397Y-73776292D01*
X120723329Y-73901514D01*
X120967298Y-73973097D01*
X121780395Y-73160000D01*
X122139605Y-73160000D01*
X122952702Y-73973097D01*
X123196671Y-73901514D01*
X123317571Y-73646004D01*
X123386300Y-73371816D01*
X123400217Y-73089488D01*
X123358787Y-72809870D01*
X123263603Y-72543708D01*
X123196671Y-72418486D01*
X122952702Y-72346903D01*
X122139605Y-73160000D01*
X121780395Y-73160000D01*
X120967298Y-72346903D01*
X120723329Y-72418486D01*
X120602429Y-72673996D01*
X120533700Y-72948184D01*
X120519783Y-73230512D01*
X113463354Y-73230512D01*
X113441797Y-64581653D01*
X117937952Y-64581653D01*
X118093962Y-64897214D01*
X118468745Y-65088020D01*
X118873551Y-65202044D01*
X119292824Y-65234902D01*
X119710451Y-65185334D01*
X120110383Y-65055243D01*
X120406038Y-64897214D01*
X120562048Y-64581653D01*
X119250000Y-63269605D01*
X117937952Y-64581653D01*
X113441797Y-64581653D01*
X113438185Y-63132824D01*
X117105098Y-63132824D01*
X117154666Y-63550451D01*
X117284757Y-63950383D01*
X117442786Y-64246038D01*
X117758347Y-64402048D01*
X119070395Y-63090000D01*
X119429605Y-63090000D01*
X120741653Y-64402048D01*
X121057214Y-64246038D01*
X121248020Y-63871255D01*
X121362044Y-63466449D01*
X121366859Y-63405000D01*
X133726928Y-63405000D01*
X133739188Y-63529482D01*
X133775498Y-63649180D01*
X133834463Y-63759494D01*
X133913815Y-63856185D01*
X134010506Y-63935537D01*
X134120820Y-63994502D01*
X134240518Y-64030812D01*
X134365000Y-64043072D01*
X134704250Y-64040000D01*
X134863000Y-63881250D01*
X134863000Y-62657000D01*
X135117000Y-62657000D01*
X135117000Y-63881250D01*
X135275750Y-64040000D01*
X135615000Y-64043072D01*
X135739482Y-64030812D01*
X135859180Y-63994502D01*
X135969494Y-63935537D01*
X136066185Y-63856185D01*
X136145537Y-63759494D01*
X136204502Y-63649180D01*
X136240812Y-63529482D01*
X136253072Y-63405000D01*
X136250000Y-62815750D01*
X136091250Y-62657000D01*
X135117000Y-62657000D01*
X134863000Y-62657000D01*
X133888750Y-62657000D01*
X133730000Y-62815750D01*
X133726928Y-63405000D01*
X121366859Y-63405000D01*
X121394902Y-63047176D01*
X121345334Y-62629549D01*
X121215243Y-62229617D01*
X121057214Y-61933962D01*
X120741653Y-61777952D01*
X119429605Y-63090000D01*
X119070395Y-63090000D01*
X117758347Y-61777952D01*
X117442786Y-61933962D01*
X117251980Y-62308745D01*
X117137956Y-62713551D01*
X117105098Y-63132824D01*
X113438185Y-63132824D01*
X113434360Y-61598347D01*
X117937952Y-61598347D01*
X119250000Y-62910395D01*
X120505395Y-61655000D01*
X133726928Y-61655000D01*
X133730000Y-62244250D01*
X133888750Y-62403000D01*
X134863000Y-62403000D01*
X134863000Y-61178750D01*
X135117000Y-61178750D01*
X135117000Y-62403000D01*
X136091250Y-62403000D01*
X136250000Y-62244250D01*
X136251768Y-61905000D01*
X136526928Y-61905000D01*
X136526928Y-63155000D01*
X136543992Y-63328254D01*
X136594528Y-63494850D01*
X136676595Y-63648386D01*
X136787038Y-63782962D01*
X136921614Y-63893405D01*
X137075150Y-63975472D01*
X137241746Y-64026008D01*
X137415000Y-64043072D01*
X138165000Y-64043072D01*
X138338254Y-64026008D01*
X138504850Y-63975472D01*
X138658386Y-63893405D01*
X138792962Y-63782962D01*
X138903405Y-63648386D01*
X138985472Y-63494850D01*
X139035478Y-63330000D01*
X140070224Y-63330000D01*
X140073992Y-63368254D01*
X140124528Y-63534850D01*
X140206595Y-63688386D01*
X140317038Y-63822962D01*
X140451614Y-63933405D01*
X140605150Y-64015472D01*
X140771746Y-64066008D01*
X140945000Y-64083072D01*
X141695000Y-64083072D01*
X141868254Y-64066008D01*
X142034850Y-64015472D01*
X142188386Y-63933405D01*
X142322962Y-63822962D01*
X142433405Y-63688386D01*
X142515472Y-63534850D01*
X142566008Y-63368254D01*
X142583072Y-63195000D01*
X142583072Y-61945000D01*
X142566008Y-61771746D01*
X142515472Y-61605150D01*
X142433405Y-61451614D01*
X142322962Y-61317038D01*
X142188386Y-61206595D01*
X142034850Y-61124528D01*
X141868254Y-61073992D01*
X141695000Y-61056928D01*
X140945000Y-61056928D01*
X140771746Y-61073992D01*
X140605150Y-61124528D01*
X140451614Y-61206595D01*
X140317038Y-61317038D01*
X140206595Y-61451614D01*
X140124528Y-61605150D01*
X140073992Y-61771746D01*
X140070224Y-61810000D01*
X139043715Y-61810000D01*
X139036008Y-61731746D01*
X138985472Y-61565150D01*
X138903405Y-61411614D01*
X138792962Y-61277038D01*
X138658386Y-61166595D01*
X138504850Y-61084528D01*
X138338254Y-61033992D01*
X138165000Y-61016928D01*
X137415000Y-61016928D01*
X137241746Y-61033992D01*
X137075150Y-61084528D01*
X136921614Y-61166595D01*
X136787038Y-61277038D01*
X136676595Y-61411614D01*
X136594528Y-61565150D01*
X136543992Y-61731746D01*
X136526928Y-61905000D01*
X136251768Y-61905000D01*
X136253072Y-61655000D01*
X136240812Y-61530518D01*
X136204502Y-61410820D01*
X136145537Y-61300506D01*
X136066185Y-61203815D01*
X135969494Y-61124463D01*
X135859180Y-61065498D01*
X135739482Y-61029188D01*
X135615000Y-61016928D01*
X135275750Y-61020000D01*
X135117000Y-61178750D01*
X134863000Y-61178750D01*
X134704250Y-61020000D01*
X134365000Y-61016928D01*
X134240518Y-61029188D01*
X134120820Y-61065498D01*
X134010506Y-61124463D01*
X133913815Y-61203815D01*
X133834463Y-61300506D01*
X133775498Y-61410820D01*
X133739188Y-61530518D01*
X133726928Y-61655000D01*
X120505395Y-61655000D01*
X120562048Y-61598347D01*
X120406038Y-61282786D01*
X120031255Y-61091980D01*
X119626449Y-60977956D01*
X119207176Y-60945098D01*
X118789549Y-60994666D01*
X118389617Y-61124757D01*
X118093962Y-61282786D01*
X117937952Y-61598347D01*
X113434360Y-61598347D01*
X113431646Y-60509628D01*
X148108898Y-60490152D01*
X148097193Y-61455827D01*
G36*
X138390000Y-69844556D02*
G01*
X138319463Y-69930506D01*
X138260498Y-70040820D01*
X138224188Y-70160518D01*
X138211928Y-70285000D01*
X138211928Y-70425000D01*
X135963072Y-70425000D01*
X135963072Y-69965000D01*
X135946008Y-69791746D01*
X135895472Y-69625150D01*
X135813405Y-69471614D01*
X135702962Y-69337038D01*
X135596917Y-69250010D01*
X138252668Y-69250010D01*
X138289990Y-69253686D01*
X138327312Y-69250010D01*
X138327323Y-69250010D01*
X138390000Y-69243837D01*
X138390000Y-69844556D01*
G37*
X138390000Y-69844556D02*
X138319463Y-69930506D01*
X138260498Y-70040820D01*
X138224188Y-70160518D01*
X138211928Y-70285000D01*
X138211928Y-70425000D01*
X135963072Y-70425000D01*
X135963072Y-69965000D01*
X135946008Y-69791746D01*
X135895472Y-69625150D01*
X135813405Y-69471614D01*
X135702962Y-69337038D01*
X135596917Y-69250010D01*
X138252668Y-69250010D01*
X138289990Y-69253686D01*
X138327312Y-69250010D01*
X138327323Y-69250010D01*
X138390000Y-69243837D01*
X138390000Y-69844556D01*
%TD*%
M02*
